<?xml version="1.0" encoding="utf-8"?>
<!-- Generator: Adobe Illustrator 22.1.0, SVG Export Plug-In . SVG Version: 6.00 Build 0)  -->
<svg version="1.1" id="Слой_1" xmlns="http://www.w3.org/2000/svg" xmlns:xlink="http://www.w3.org/1999/xlink" x="0px" y="0px"
	 viewBox="0 0 60 60" style="enable-background:new 0 0 60 60;" xml:space="preserve">
<style type="text/css">
	.st0{fill:none;}
	.st1{fill:#25AAE1;}
</style>
<rect class="st0" width="60" height="60"/>
<path class="st1" d="M30,0C13.4,0,0,13.4,0,30s13.4,30,30,30s30-13.4,30-30S46.6,0,30,0z M7.8,47.1c2.6-1,5.1-1.9,7.7-2.8
	c1.9-0.7,3.8-1.3,5.7-1.8c0.5-0.1,0.7-0.4,0.7-0.9c0-1.7-0.1-3.3-0.7-4.9c-0.5-1.1-0.7-2.3-1.1-3.5c-0.2-0.5-0.4-1-0.6-1.5
	c-1.3-2.3-2.2-4.9-1.7-7.5c0.4-2.4,0.2-4.7-0.2-7.1C17,13,19.3,8.2,23.3,6.3c4.5-2.1,9.1-2.1,13.6,0.1c4.1,2,6.2,6.6,5.5,11.1
	c-0.2,1.5-0.3,3.1-0.4,4.6c0,0.2,0,0.5,0.1,0.8c1,3.3-0.1,6.3-1.7,9.1c-0.1,0.2-0.2,0.4-0.3,0.6c-0.5,1.7-1,3.3-1.6,5
	c-0.5,1.2-0.8,2.4-0.8,3.8c0,0.6,0.3,0.9,0.8,1.1c4.4,1.5,8.7,3,13.1,4.5c0.2,0.1,0.4,0.2,0.6,0.3C41.1,60.9,19.3,61.2,7.8,47.1z"/>
</svg>
