<svg xmlns="http://www.w3.org/2000/svg" xmlns:xlink="http://www.w3.org/1999/xlink" preserveAspectRatio="xMidYMid meet" width="60" height="60" viewBox="0 0 60 60" style="width:100%;height:100%"><defs><animateTransform repeatCount="indefinite" dur="5.0383717s" begin="0s" xlink:href="#_R_G_L_2_G_N_2_T_0" fill="freeze" attributeName="transform" from="0" to="0" type="rotate" additive="sum" keyTimes="0;0.2649007;0.3112583;0.5298013;0.6622517;1" values="0;0;-5;-5;0;0" keySplines="0.167 0.167 0 1;0.167 0.167 0 1;0.167 0 0.833 1;0.167 0.167 0.833 0.833;0 0 0 0" calcMode="spline"/><animateTransform repeatCount="indefinite" dur="5.0383717s" begin="0s" xlink:href="#_R_G_L_2_G_N_2_T_0" fill="freeze" attributeName="transform" from="0.17 0.17" to="0.17 0.17" type="scale" additive="sum" keyTimes="0;1" values="0.17 0.17;0.17 0.17" keySplines="0 0 1 1" calcMode="spline"/><animateTransform repeatCount="indefinite" dur="5.0383717s" begin="0s" xlink:href="#_R_G_L_1_G_N_2_T_0" fill="freeze" attributeName="transform" from="0" to="0" type="rotate" additive="sum" keyTimes="0;0.2649007;0.3112583;0.5298013;0.6622517;1" values="0;0;-5;-5;0;0" keySplines="0.167 0.167 0 1;0.167 0.167 0 1;0.167 0 0.833 1;0.167 0.167 0.833 0.833;0 0 0 0" calcMode="spline"/><animateTransform repeatCount="indefinite" dur="5.0383717s" begin="0s" xlink:href="#_R_G_L_1_G_N_2_T_0" fill="freeze" attributeName="transform" from="0.17 0.17" to="0.17 0.17" type="scale" additive="sum" keyTimes="0;1" values="0.17 0.17;0.17 0.17" keySplines="0 0 1 1" calcMode="spline"/><animate repeatCount="indefinite" dur="5.0383717s" begin="0s" xlink:href="#_R_G_L_0_G_D_0_P_0" fill="freeze" attributeName="d" attributeType="XML" from=" M7.33 -14.96 C7.33,-14.96 -8.87,-14.96 -8.87,-14.96 C-15.77,-14.96 -21.37,-9.36 -21.37,-2.46 C-21.37,-2.46 -21.37,13.84 -21.37,13.84 C-21.37,20.74 -15.77,26.34 -8.87,26.34 C-8.87,26.34 7.43,26.34 7.43,26.34 C14.33,26.34 19.93,20.74 19.93,13.84 C19.93,13.84 19.93,-2.46 19.93,-2.46 C19.83,-9.36 14.23,-14.96 7.33,-14.96z  M-16.42 2.51 C-16.42,1.4 -16.08,0.37 -15.49,-0.47 C-14.57,-1.86 -12.99,-2.76 -11.17,-2.76 C-9.36,-2.76 -7.78,-1.86 -6.85,-0.47 C-6.27,0.37 -5.92,1.4 -5.92,2.51 C-5.92,5.42 -8.27,7.78 -11.17,7.78 C-14.07,7.78 -16.42,5.42 -16.42,2.51z M11.01 14.87 C7.51,18.07 3.59,19.41 -0.31,19.41 C-4.11,19.41 -8.11,17.72 -12.21,14.62 C-12.61,14.32 -12.55,13.62 -12.25,13.22 C-11.95,12.82 -11.32,12.75 -10.92,13.15 C-3.62,18.85 3.05,19.1 9.45,13.5 C9.85,13.1 10.7,13.17 11.1,13.47 C11.5,13.87 11.41,14.57 11.01,14.87z " to=" M7.33 -14.96 C7.33,-14.96 -8.87,-14.96 -8.87,-14.96 C-15.77,-14.96 -21.37,-9.36 -21.37,-2.46 C-21.37,-2.46 -21.37,13.84 -21.37,13.84 C-21.37,20.74 -15.77,26.34 -8.87,26.34 C-8.87,26.34 7.43,26.34 7.43,26.34 C14.33,26.34 19.93,20.74 19.93,13.84 C19.93,13.84 19.93,-2.46 19.93,-2.46 C19.83,-9.36 14.23,-14.96 7.33,-14.96z  M-16.42 2.51 C-16.42,1.4 -16.08,0.37 -15.49,-0.47 C-14.57,-1.86 -12.99,-2.76 -11.17,-2.76 C-9.36,-2.76 -7.78,-1.86 -6.85,-0.47 C-6.27,0.37 -5.92,1.4 -5.92,2.51 C-5.92,5.42 -8.27,7.78 -11.17,7.78 C-14.07,7.78 -16.42,5.42 -16.42,2.51z M11.01 14.87 C7.51,18.07 3.59,19.41 -0.31,19.41 C-4.11,19.41 -8.11,17.72 -12.21,14.62 C-12.61,14.32 -12.55,13.62 -12.25,13.22 C-11.95,12.82 -11.32,12.75 -10.92,13.15 C-3.62,18.85 3.05,19.1 9.45,13.5 C9.85,13.1 10.7,13.17 11.1,13.47 C11.5,13.87 11.41,14.57 11.01,14.87z " keyTimes="0;0.2649007;0.3112583;0.5298013;0.6622517;1" values=" M7.33 -14.96 C7.33,-14.96 -8.87,-14.96 -8.87,-14.96 C-15.77,-14.96 -21.37,-9.36 -21.37,-2.46 C-21.37,-2.46 -21.37,13.84 -21.37,13.84 C-21.37,20.74 -15.77,26.34 -8.87,26.34 C-8.87,26.34 7.43,26.34 7.43,26.34 C14.33,26.34 19.93,20.74 19.93,13.84 C19.93,13.84 19.93,-2.46 19.93,-2.46 C19.83,-9.36 14.23,-14.96 7.33,-14.96z  M-16.42 2.51 C-16.42,1.4 -16.08,0.37 -15.49,-0.47 C-14.57,-1.86 -12.99,-2.76 -11.17,-2.76 C-9.36,-2.76 -7.78,-1.86 -6.85,-0.47 C-6.27,0.37 -5.92,1.4 -5.92,2.51 C-5.92,5.42 -8.27,7.78 -11.17,7.78 C-14.07,7.78 -16.42,5.42 -16.42,2.51z M11.01 14.87 C7.51,18.07 3.59,19.41 -0.31,19.41 C-4.11,19.41 -8.11,17.72 -12.21,14.62 C-12.61,14.32 -12.55,13.62 -12.25,13.22 C-11.95,12.82 -11.32,12.75 -10.92,13.15 C-3.62,18.85 3.05,19.1 9.45,13.5 C9.85,13.1 10.7,13.17 11.1,13.47 C11.5,13.87 11.41,14.57 11.01,14.87z  M9.58 7.49 C6.9,7.34 4.72,4.95 4.67,2.48 C4.65,1.37 4.72,0.37 5.31,-0.48 C6.23,-1.86 7.81,-2.76 9.63,-2.76 C11.44,-2.76 13.02,-1.86 13.95,-0.47 C14.53,0.37 14.88,1.4 14.88,2.51 C14.88,5.42 12.48,7.64 9.58,7.49z ; M7.33 -14.96 C7.33,-14.96 -8.87,-14.96 -8.87,-14.96 C-15.77,-14.96 -21.37,-9.36 -21.37,-2.46 C-21.37,-2.46 -21.37,13.84 -21.37,13.84 C-21.37,20.74 -15.77,26.34 -8.87,26.34 C-8.87,26.34 7.43,26.34 7.43,26.34 C14.33,26.34 19.93,20.74 19.93,13.84 C19.93,13.84 19.93,-2.46 19.93,-2.46 C19.83,-9.36 14.23,-14.96 7.33,-14.96z  M-16.42 2.51 C-16.42,1.4 -16.08,0.37 -15.49,-0.47 C-14.57,-1.86 -12.99,-2.76 -11.17,-2.76 C-9.36,-2.76 -7.78,-1.86 -6.85,-0.47 C-6.27,0.37 -5.92,1.4 -5.92,2.51 C-5.92,5.42 -8.27,7.78 -11.17,7.78 C-14.07,7.78 -16.42,5.42 -16.42,2.51z M11.01 14.87 C7.51,18.07 3.59,19.41 -0.31,19.41 C-4.11,19.41 -8.11,17.72 -12.21,14.62 C-12.61,14.32 -12.55,13.62 -12.25,13.22 C-11.95,12.82 -11.32,12.75 -10.92,13.15 C-3.62,18.85 3.05,19.1 9.45,13.5 C9.85,13.1 10.7,13.17 11.1,13.47 C11.5,13.87 11.41,14.57 11.01,14.87z  M9.58 7.49 C6.9,7.34 4.72,4.95 4.67,2.48 C4.65,1.37 4.72,0.37 5.31,-0.48 C6.23,-1.86 7.81,-2.76 9.63,-2.76 C11.44,-2.76 13.02,-1.86 13.95,-0.47 C14.53,0.37 14.88,1.4 14.88,2.51 C14.88,5.42 12.48,7.64 9.58,7.49z ; M7.33 -14.96 C7.33,-14.96 -8.87,-14.96 -8.87,-14.96 C-15.77,-14.96 -21.37,-9.36 -21.37,-2.46 C-21.37,-2.46 -21.37,13.84 -21.37,13.84 C-21.37,20.74 -15.77,26.34 -8.87,26.34 C-8.87,26.34 7.43,26.34 7.43,26.34 C14.33,26.34 19.93,20.74 19.93,13.84 C19.93,13.84 19.93,-2.46 19.93,-2.46 C19.83,-9.36 14.23,-14.96 7.33,-14.96z  M-16.42 2.51 C-16.42,1.4 -16.08,0.37 -15.49,-0.47 C-14.57,-1.86 -12.99,-2.76 -11.17,-2.76 C-9.36,-2.76 -7.78,-1.86 -6.85,-0.47 C-6.27,0.37 -5.92,1.4 -5.92,2.51 C-5.92,5.42 -8.27,7.78 -11.17,7.78 C-14.07,7.78 -16.42,5.42 -16.42,2.51z M11.15 14.01 C7.65,17.21 3.62,19.48 -0.28,19.48 C-4.08,19.48 -7.62,18.43 -11.78,15.77 C-12.2,15.51 -12.19,14.8 -11.89,14.4 C-11.59,14 -11.19,13.79 -10.79,14.19 C-2.75,19.23 4.12,18.47 9.77,12.75 C10.17,12.35 10.82,12.21 11.22,12.51 C11.77,12.99 11.55,13.71 11.15,14.01z  M9.83 -1.18 C6.62,-1.18 5.01,3.09 4.67,2.48 C4.31,1.43 4.72,0.37 5.31,-0.48 C6.23,-1.86 7.81,-2.76 9.63,-2.76 C11.44,-2.76 13.02,-1.86 13.95,-0.47 C14.53,0.37 14.88,1.4 14.88,2.51 C14.88,5.42 13.49,-1.17 9.83,-1.18z ; M7.33 -14.96 C7.33,-14.96 -8.87,-14.96 -8.87,-14.96 C-15.77,-14.96 -21.37,-9.36 -21.37,-2.46 C-21.37,-2.46 -21.37,13.84 -21.37,13.84 C-21.37,20.74 -15.77,26.34 -8.87,26.34 C-8.87,26.34 7.43,26.34 7.43,26.34 C14.33,26.34 19.93,20.74 19.93,13.84 C19.93,13.84 19.93,-2.46 19.93,-2.46 C19.83,-9.36 14.23,-14.96 7.33,-14.96z  M-16.42 2.51 C-16.42,1.4 -16.08,0.37 -15.49,-0.47 C-14.57,-1.86 -12.99,-2.76 -11.17,-2.76 C-9.36,-2.76 -7.78,-1.86 -6.85,-0.47 C-6.27,0.37 -5.92,1.4 -5.92,2.51 C-5.92,5.42 -8.27,7.78 -11.17,7.78 C-14.07,7.78 -16.42,5.42 -16.42,2.51z M11.15 14.01 C7.65,17.21 3.62,19.48 -0.28,19.48 C-4.08,19.48 -7.62,18.43 -11.78,15.77 C-12.2,15.51 -12.19,14.8 -11.89,14.4 C-11.59,14 -11.19,13.79 -10.79,14.19 C-2.75,19.23 4.12,18.47 9.77,12.75 C10.17,12.35 10.82,12.21 11.22,12.51 C11.77,12.99 11.55,13.71 11.15,14.01z  M9.83 -1.18 C6.62,-1.18 5.01,3.09 4.67,2.48 C4.31,1.43 4.72,0.37 5.31,-0.48 C6.23,-1.86 7.81,-2.76 9.63,-2.76 C11.44,-2.76 13.02,-1.86 13.95,-0.47 C14.53,0.37 14.88,1.4 14.88,2.51 C14.88,5.42 13.49,-1.17 9.83,-1.18z ; M7.33 -14.96 C7.33,-14.96 -8.87,-14.96 -8.87,-14.96 C-15.77,-14.96 -21.37,-9.36 -21.37,-2.46 C-21.37,-2.46 -21.37,13.84 -21.37,13.84 C-21.37,20.74 -15.77,26.34 -8.87,26.34 C-8.87,26.34 7.43,26.34 7.43,26.34 C14.33,26.34 19.93,20.74 19.93,13.84 C19.93,13.84 19.93,-2.46 19.93,-2.46 C19.83,-9.36 14.23,-14.96 7.33,-14.96z  M-16.42 2.51 C-16.42,1.4 -16.08,0.37 -15.49,-0.47 C-14.57,-1.86 -12.99,-2.76 -11.17,-2.76 C-9.36,-2.76 -7.78,-1.86 -6.85,-0.47 C-6.27,0.37 -5.92,1.4 -5.92,2.51 C-5.92,5.42 -8.27,7.78 -11.17,7.78 C-14.07,7.78 -16.42,5.42 -16.42,2.51z M11.01 14.87 C7.51,18.07 3.59,19.41 -0.31,19.41 C-4.11,19.41 -8.11,17.72 -12.21,14.62 C-12.61,14.32 -12.55,13.62 -12.25,13.22 C-11.95,12.82 -11.32,12.75 -10.92,13.15 C-3.62,18.85 3.05,19.1 9.45,13.5 C9.85,13.1 10.7,13.17 11.1,13.47 C11.5,13.87 11.41,14.57 11.01,14.87z  M9.58 7.49 C6.9,7.34 4.72,4.95 4.67,2.48 C4.65,1.37 4.72,0.37 5.31,-0.48 C6.23,-1.86 7.81,-2.76 9.63,-2.76 C11.44,-2.76 13.02,-1.86 13.95,-0.47 C14.53,0.37 14.88,1.4 14.88,2.51 C14.88,5.42 12.48,7.64 9.58,7.49z ; M7.33 -14.96 C7.33,-14.96 -8.87,-14.96 -8.87,-14.96 C-15.77,-14.96 -21.37,-9.36 -21.37,-2.46 C-21.37,-2.46 -21.37,13.84 -21.37,13.84 C-21.37,20.74 -15.77,26.34 -8.87,26.34 C-8.87,26.34 7.43,26.34 7.43,26.34 C14.33,26.34 19.93,20.74 19.93,13.84 C19.93,13.84 19.93,-2.46 19.93,-2.46 C19.83,-9.36 14.23,-14.96 7.33,-14.96z  M-16.42 2.51 C-16.42,1.4 -16.08,0.37 -15.49,-0.47 C-14.57,-1.86 -12.99,-2.76 -11.17,-2.76 C-9.36,-2.76 -7.78,-1.86 -6.85,-0.47 C-6.27,0.37 -5.92,1.4 -5.92,2.51 C-5.92,5.42 -8.27,7.78 -11.17,7.78 C-14.07,7.78 -16.42,5.42 -16.42,2.51z M11.01 14.87 C7.51,18.07 3.59,19.41 -0.31,19.41 C-4.11,19.41 -8.11,17.72 -12.21,14.62 C-12.61,14.32 -12.55,13.62 -12.25,13.22 C-11.95,12.82 -11.32,12.75 -10.92,13.15 C-3.62,18.85 3.05,19.1 9.45,13.5 C9.85,13.1 10.7,13.17 11.1,13.47 C11.5,13.87 11.41,14.57 11.01,14.87z  M9.58 7.49 C6.9,7.34 4.72,4.95 4.67,2.48 C4.65,1.37 4.72,0.37 5.31,-0.48 C6.23,-1.86 7.81,-2.76 9.63,-2.76 C11.44,-2.76 13.02,-1.86 13.95,-0.47 C14.53,0.37 14.88,1.4 14.88,2.51 C14.88,5.42 12.48,7.64 9.58,7.49z " keySplines="0.167 0.167 0 1;0.167 0.167 0 1;0.167 0.167 0 1;0.167 0.167 0 1;0 0 0 0" calcMode="spline"/><animateTransform repeatCount="indefinite" dur="5.0383717s" begin="0s" xlink:href="#_R_G_L_0_G_N_2_T_0" fill="freeze" attributeName="transform" from="0" to="0" type="rotate" additive="sum" keyTimes="0;0.2649007;0.3112583;0.5298013;0.6622517;1" values="0;0;-5;-5;0;0" keySplines="0.167 0.167 0 1;0.167 0.167 0 1;0.167 0 0.833 1;0.167 0.167 0.833 0.833;0 0 0 0" calcMode="spline"/><animateTransform repeatCount="indefinite" dur="5.0383717s" begin="0s" xlink:href="#_R_G_L_0_G_N_2_T_0" fill="freeze" attributeName="transform" from="0.17 0.17" to="0.17 0.17" type="scale" additive="sum" keyTimes="0;1" values="0.17 0.17;0.17 0.17" keySplines="0 0 1 1" calcMode="spline"/><animate attributeType="XML" attributeName="opacity" dur="5s" from="0" to="1" xlink:href="#time_group"/></defs><g id="_R_G"><g id="_R_G_L_3_G" transform=" translate(29.95, 29.818) scale(0.01421, 0.01421) translate(-1870, -2062)"><path id="_R_G_L_3_G_D_0_P_0" fill="#48a8df" fill-opacity="1" fill-rule="nonzero" d=" M1870 22 C743.34,22 -170,935.34 -170,2062 C-170,3188.66 743.34,4102 1870,4102 C2996.66,4102 3910,3188.66 3910,2062 C3910,935.34 2996.66,22 1870,22z "/></g><g id="_R_G_L_2_G_N_2_T_0" transform=" translate(30, 39)"><g id="_R_G_L_2_G" transform=" translate(-112.214, -85.968) scale(3.72, 3.72) translate(0, 0)"><path id="_R_G_L_2_G_D_0_P_0" fill="#ffffff" fill-opacity="1" fill-rule="nonzero" d=" M1.5 5 C1.3,5 1,5 0.8,5.1 C0.8,5.1 0.8,-18 0.8,-18 C1.9,-18.2 2.8,-19.2 2.8,-20.4 C2.7,-21.8 1.6,-22.9 0.3,-22.9 C-1,-22.9 -2.2,-21.8 -2.2,-20.4 C-2.2,-19.2 -1.4,-18.2 -0.2,-18 C-0.2,-18 -0.2,5.3 -0.2,5.3 C-2.3,6 -3.8,7.9 -3.8,10.3 C-3.8,10.3 -3.8,17.6 -3.8,17.6 C-3.8,20.5 -1.4,22.9 1.5,22.9 C1.5,22.9 3.8,22.9 3.8,22.9 C3.8,22.9 3.8,5 3.8,5 C3.8,5 1.5,5 1.5,5z "/></g></g><g id="_R_G_L_1_G_N_2_T_0" transform=" translate(30, 39)"><g id="_R_G_L_1_G" transform=" translate(113.786, -85.968) scale(-3.72, 3.72) translate(0, 0)"><path id="_R_G_L_1_G_D_0_P_0" fill="#ffffff" fill-opacity="1" fill-rule="nonzero" d=" M1.5 5 C1.3,5 1,5 0.8,5.1 C0.8,5.1 0.8,-18 0.8,-18 C1.9,-18.2 2.8,-19.2 2.8,-20.4 C2.7,-21.8 1.6,-22.9 0.3,-22.9 C-1,-22.9 -2.2,-21.8 -2.2,-20.4 C-2.2,-19.2 -1.4,-18.2 -0.2,-18 C-0.2,-18 -0.2,5.3 -0.2,5.3 C-2.3,6 -3.8,7.9 -3.8,10.3 C-3.8,10.3 -3.8,17.6 -3.8,17.6 C-3.8,20.5 -1.4,22.9 1.5,22.9 C1.5,22.9 3.8,22.9 3.8,22.9 C3.8,22.9 3.8,5 3.8,5 C3.8,5 1.5,5 1.5,5z "/></g></g><g id="_R_G_L_0_G_N_2_T_0" transform=" translate(30, 39)"><g id="_R_G_L_0_G" transform=" translate(4.436, -5.36) scale(4.58, 4.58) translate(-0.25, -9.45)"><path id="_R_G_L_0_G_D_0_P_0" fill="#ffffff" fill-opacity="1" fill-rule="nonzero" d=" M7.33 -14.96 C7.33,-14.96 -8.87,-14.96 -8.87,-14.96 C-15.77,-14.96 -21.37,-9.36 -21.37,-2.46 C-21.37,-2.46 -21.37,13.84 -21.37,13.84 C-21.37,20.74 -15.77,26.34 -8.87,26.34 C-8.87,26.34 7.43,26.34 7.43,26.34 C14.33,26.34 19.93,20.74 19.93,13.84 C19.93,13.84 19.93,-2.46 19.93,-2.46 C19.83,-9.36 14.23,-14.96 7.33,-14.96z  M-16.42 2.51 C-16.42,1.4 -16.08,0.37 -15.49,-0.47 C-14.57,-1.86 -12.99,-2.76 -11.17,-2.76 C-9.36,-2.76 -7.78,-1.86 -6.85,-0.47 C-6.27,0.37 -5.92,1.4 -5.92,2.51 C-5.92,5.42 -8.27,7.78 -11.17,7.78 C-14.07,7.78 -16.42,5.42 -16.42,2.51z  M11.01 14.87 C7.51,18.07 3.59,19.41 -0.31,19.41 C-4.11,19.41 -8.11,17.72 -12.21,14.62 C-12.61,14.32 -12.55,13.62 -12.25,13.22 C-11.95,12.82 -11.32,12.75 -10.92,13.15 C-3.62,18.85 3.05,19.1 9.45,13.5 C9.85,13.1 10.7,13.17 11.1,13.47 C11.5,13.87 11.41,14.57 11.01,14.87z "/></g></g></g><g id="time_group"/></svg>