<?xml version="1.0" encoding="utf-8"?>
<!-- Generator: Adobe Illustrator 22.1.0, SVG Export Plug-In . SVG Version: 6.00 Build 0)  -->
<svg version="1.1" id="Слой_1" xmlns="http://www.w3.org/2000/svg" xmlns:xlink="http://www.w3.org/1999/xlink" x="0px" y="0px"
	 viewBox="0 0 60 60" style="enable-background:new 0 0 60 60;" xml:space="preserve">
<style type="text/css">
	.st0{fill:none;}
	.st1{fill:#25AAE1;}
</style>
<rect class="st0" width="60" height="60"/>
<g>
	<path class="st1" d="M45.2,47.9h-39c-3.5,0-6.3,2.8-6.3,6.3V60h51.7v-5.7C51.6,50.8,48.7,47.9,45.2,47.9z"/>
	<path class="st1" d="M6.2,23.4l7.1,21.3h11.9l-8.3-25.1c0.9-1.4,1.4-3.1,1.4-4.9c0-5-4.1-9.1-9.1-9.1S0,9.7,0,14.7
		C0,18.8,2.6,22.2,6.2,23.4z M9.1,11.7c1.7,0,3,1.3,3,3c0,1.7-1.3,3-3,3c-1.7,0-3-1.3-3-3C6.1,13.1,7.5,11.7,9.1,11.7z"/>
	<polygon class="st1" points="46.7,21.9 41,14.6 46.7,7.4 57.4,13.1 60.1,8 45.1,0 38.1,8.9 33.5,8.9 33.5,11.8 21.2,11.8 
		21.2,17.4 33.5,17.4 33.5,20.4 38.1,20.4 45.1,29.2 60.1,21.2 57.4,16.1 	"/>
</g>
</svg>
