<?xml version="1.0" encoding="utf-8"?>
<!-- Generator: Adobe Illustrator 22.1.0, SVG Export Plug-In . SVG Version: 6.00 Build 0)  -->
<svg version="1.1" id="Слой_1" xmlns="http://www.w3.org/2000/svg" xmlns:xlink="http://www.w3.org/1999/xlink" x="0px" y="0px"
	 viewBox="0 0 60 60" style="enable-background:new 0 0 60 60;" xml:space="preserve">
<style type="text/css">
	.st0{fill:#FFFFFF;}
	.st1{fill:#25AAE1;}
</style>
<g>
	<path class="st0" d="M10.2,54.4h39.5c2,0,3.7-1.6,3.7-3.6V30.6c0-2-1.7-3.6-3.7-3.6H10.2c-2,0-3.7,1.6-3.7,3.6v20.2
		C6.5,52.8,8.2,54.4,10.2,54.4z M12.1,31.1h35.9c0.8,0,1.4,0.6,1.4,1.4s-0.6,1.4-1.4,1.4H12.1c-0.8,0-1.4-0.6-1.4-1.4
		S11.3,31.1,12.1,31.1z M12.1,39.1h35.9c0.8,0,1.4,0.6,1.4,1.4s-0.6,1.4-1.4,1.4H12.1c-0.8,0-1.4-0.6-1.4-1.4S11.3,39.1,12.1,39.1z
		 M12.1,47.1h35.9c0.8,0,1.4,0.6,1.4,1.4s-0.6,1.4-1.4,1.4H12.1c-0.8,0-1.4-0.6-1.4-1.4S11.3,47.1,12.1,47.1z"/>
	<path class="st1" d="M54.7,6.4h-0.8v7.1c0,3.3-2.7,5.9-6.1,5.9h-3.3c-3.4,0-6.1-2.6-6.1-5.9V6.4H21.6v7.1c0,3.3-2.7,5.9-6.1,5.9
		h-3.3c-3.4,0-6.1-2.6-6.1-5.9V6.4H5.3C2.4,6.4,0,8.7,0,11.5V55c0,2.8,2.4,5.1,5.3,5.1h49.4c2.9,0,5.3-2.3,5.3-5.1V11.5
		C60,8.7,57.6,6.4,54.7,6.4z M53.5,50.9c0,2-1.7,3.6-3.7,3.6H10.2c-2,0-3.7-1.6-3.7-3.6V30.6c0-2,1.7-3.6,3.7-3.6h39.5
		c2,0,3.7,1.6,3.7,3.6V50.9z"/>
	<path class="st1" d="M11.3,16.3H16c1.1,0,2-0.9,2-1.9V1.8c0-1.1-0.9-1.9-2-1.9h-4.7c-1.1,0-2,0.9-2,1.9v12.6
		C9.3,15.5,10.2,16.3,11.3,16.3z"/>
	<path class="st1" d="M44,16.3h4.7c1.1,0,2-0.9,2-1.9V1.8c0-1.1-0.9-1.9-2-1.9H44c-1.1,0-2,0.9-2,1.9v12.6
		C42,15.5,42.9,16.3,44,16.3z"/>
	<path class="st1" d="M12.1,33.8h35.9c0.8,0,1.4-0.6,1.4-1.4s-0.6-1.4-1.4-1.4H12.1c-0.8,0-1.4,0.6-1.4,1.4S11.3,33.8,12.1,33.8z"/>
	<path class="st1" d="M12.1,41.8h35.9c0.8,0,1.4-0.6,1.4-1.4s-0.6-1.4-1.4-1.4H12.1c-0.8,0-1.4,0.6-1.4,1.4S11.3,41.8,12.1,41.8z"/>
	<path class="st1" d="M12.1,49.8h35.9c0.8,0,1.4-0.6,1.4-1.4s-0.6-1.4-1.4-1.4H12.1c-0.8,0-1.4,0.6-1.4,1.4S11.3,49.8,12.1,49.8z"/>
</g>
</svg>
