<?xml version="1.0" encoding="utf-8"?>
<!-- Generator: Adobe Illustrator 22.1.0, SVG Export Plug-In . SVG Version: 6.00 Build 0)  -->
<svg version="1.1" id="Слой_1" xmlns="http://www.w3.org/2000/svg" xmlns:xlink="http://www.w3.org/1999/xlink" x="0px" y="0px"
	 viewBox="0 0 60 60" style="enable-background:new 0 0 60 60;" xml:space="preserve">
<style type="text/css">
	.st0{fill:#25AAE1;}
	.st1{fill:#25AAE1;}
</style>
<g>
	<path class="st0" d="M55.1,5.5h-12C42.3,2.4,39.4,0,36,0c-3.4,0-6.3,2.4-7.1,5.5h-12c-2.7,0-4.9,2.2-4.9,4.9v19.2
		c1.6,0.1,3.5,0.1,5.6-0.1v-7.8l5.7,3.9h25.9v5.2H30.9l5.1,3.5L30.7,38h18.5v5.2H23.1L17.6,47v-7.2c-0.9-0.2-1.7-0.4-2.5-0.6
		c-0.9-0.2-1.9-0.5-3.1-0.9v16.8c0,2.7,2.2,4.9,4.9,4.9h38.2c2.7,0,4.9-2.2,4.9-4.9V10.5C60,7.7,57.8,5.5,55.1,5.5z M41.7,55.6H22.8
		v-5.2h18.9V55.6z M36,4.8c1.4,0,2.6,1.1,2.6,2.6S37.4,9.9,36,9.9c-1.4,0-2.6-1.1-2.6-2.6S34.6,4.8,36,4.8z M49.2,18.5H22.8v-5.2
		h26.4V18.5z"/>
	<path class="st1" d="M33.4,34.4l-14.3-9.8V31c-3.2,0.4-6.4,0.5-9.4-0.1c-2.1-0.4-4.1-1.3-5.7-2.7c-1.3-1.1-2.5-2.6-3.5-4.2
		c-0.1-0.2-0.5-0.1-0.4,0.2c0.5,1.9,1.2,3.7,2.2,5.4c1.3,2.2,3.4,4.1,5.8,5.4c2.4,1.3,4.9,2.1,7.4,2.8c1.2,0.3,2.4,0.6,3.7,0.8v5.6
		L33.4,34.4z"/>
</g>
</svg>
