<?xml version="1.0" encoding="utf-8"?>
<!-- Generator: Adobe Illustrator 22.1.0, SVG Export Plug-In . SVG Version: 6.00 Build 0)  -->
<svg version="1.1" id="Слой_1" xmlns="http://www.w3.org/2000/svg" xmlns:xlink="http://www.w3.org/1999/xlink" x="0px" y="0px"
	 viewBox="0 0 60 60" style="enable-background:new 0 0 60 60;" xml:space="preserve">
<style type="text/css">
	.st0{fill:#25AAE1;}
	.st1{fill:#FFFFFF;}
</style>
<g>
	<g>
		<path class="st0" d="M6,52.9H1.1c-0.6,0-1.1-0.5-1.1-1.1l0,0c0-0.6,0.5-1.1,1.1-1.1H6c0.6,0,1.1,0.5,1.1,1.1l0,0
			C7.1,52.4,6.6,52.9,6,52.9z"/>
		<path class="st0" d="M6,42H1.1C0.5,42,0,41.5,0,40.9v0c0-0.6,0.5-1.1,1.1-1.1H6c0.6,0,1.1,0.5,1.1,1.1v0C7.1,41.5,6.6,42,6,42z"/>
		<path class="st0" d="M6,9.3H1.1C0.5,9.3,0,8.8,0,8.2v0c0-0.6,0.5-1.1,1.1-1.1H6c0.6,0,1.1,0.5,1.1,1.1v0C7.1,8.8,6.6,9.3,6,9.3z"
			/>
		<path class="st0" d="M6,20.2H1.1c-0.6,0-1.1-0.5-1.1-1.1v0C0,18.5,0.5,18,1.1,18H6c0.6,0,1.1,0.5,1.1,1.1v0
			C7.1,19.7,6.6,20.2,6,20.2z"/>
		<path class="st0" d="M6,31.1H1.1C0.5,31.1,0,30.6,0,30v0c0-0.6,0.5-1.1,1.1-1.1H6c0.6,0,1.1,0.5,1.1,1.1v0
			C7.1,30.6,6.6,31.1,6,31.1z"/>
	</g>
	<g>
		<path class="st1" d="M51.4,3.6H15.1c-2.7,0-4.8,2.2-4.8,4.8v43.1c0,2.7,2.2,4.8,4.8,4.8h36.4c2.7,0,4.8-2.2,4.8-4.8V8.4
			C56.3,5.8,54.1,3.6,51.4,3.6z M51.4,50.4c0,1-0.8,1.8-1.8,1.8H16.7c-1,0-1.8-0.8-1.8-1.8v-6.1c0-0.4,0.3-0.8,0.7-0.9
			c1.9-0.7,3.8-1.4,5.7-2.1c1.5-0.5,3.1-1,4.7-1.5c0.4-0.1,0.5-0.3,0.6-0.7c0-1.4-0.1-2.7-0.6-4c-0.4-0.9-0.6-1.9-0.9-2.9
			c-0.2-0.5-0.3-0.9-0.6-1.3c-1.1-1.8-1.7-4-1.4-6.1c0.3-2,0.2-3.9-0.1-5.8c-0.5-3.4,1.4-7.4,4.7-8.9c3.8-1.8,7.8-1.7,11.6,0.3
			c3.2,1.7,4.7,5.3,4.1,8.9c-0.2,1.3-0.2,2.6-0.3,3.9c0,0.2,0,0.5,0.1,0.7c0.7,2.7-0.1,5.1-1.4,7.3c-0.1,0.2-0.2,0.3-0.2,0.5
			c-0.4,1.4-0.8,2.7-1.3,4.1c-0.4,1-0.7,2-0.6,3c0,0.4,0.3,0.8,0.7,0.9c2.9,1,8.6,3,10.5,3.6c0.4,0.1,0.7,0.5,0.7,0.9V50.4z"/>
		<path class="st0" d="M50.7,43.4c-1.9-0.7-7.6-2.6-10.5-3.6c-0.4-0.1-0.7-0.5-0.7-0.9c0-1.1,0.3-2,0.6-3c0.5-1.3,0.9-2.7,1.3-4.1
			c0.1-0.2,0.1-0.4,0.2-0.5c1.3-2.3,2.2-4.7,1.4-7.3C43,23.6,43,23.3,43,23.1c0.1-1.3,0.1-2.6,0.3-3.9c0.6-3.5-0.9-7.2-4.1-8.9
			c-3.8-2-7.8-2.1-11.6-0.3c-3.3,1.5-5.3,5.5-4.7,8.9c0.3,1.9,0.5,3.8,0.1,5.8c-0.4,2.1,0.3,4.2,1.4,6.1c0.2,0.4,0.4,0.9,0.6,1.3
			c0.3,0.9,0.5,1.9,0.9,2.9c0.5,1.3,0.6,2.7,0.6,4c0,0.4-0.2,0.6-0.6,0.7c-1.6,0.5-3.1,1-4.7,1.5c-1.9,0.7-3.8,1.4-5.7,2.1
			c-0.4,0.1-0.7,0.5-0.7,0.9v6.1c0,1,0.8,1.8,1.8,1.8h32.8c1,0,1.8-0.8,1.8-1.8v-6.1C51.4,43.9,51.1,43.5,50.7,43.4z"/>
	</g>
	<path class="st0" d="M53.4,0H10.2c-3.3,0-6,2.4-6.5,5.6H6c1.4,0,2.6,1.2,2.6,2.6S7.5,10.8,6,10.8H3.5v5.6H6c1.4,0,2.6,1.2,2.6,2.6
		S7.5,21.7,6,21.7H3.5v5.6H6c1.4,0,2.6,1.2,2.6,2.6S7.5,32.6,6,32.6H3.5v5.6H6c1.4,0,2.6,1.2,2.6,2.6S7.5,43.5,6,43.5H3.5v5.6H6
		c1.4,0,2.6,1.2,2.6,2.6S7.5,54.4,6,54.4H3.6c0.6,3.2,3.3,5.6,6.5,5.6h43.2c3.7,0,6.7-3.1,6.7-6.8V6.8C60,3.1,57,0,53.4,0z
		 M56.3,51.6c0,2.7-2.2,4.8-4.8,4.8H15.1c-2.7,0-4.8-2.2-4.8-4.8V8.4c0-2.7,2.2-4.8,4.8-4.8h36.4c2.7,0,4.8,2.2,4.8,4.8V51.6z"/>
</g>
</svg>
