<?xml version="1.0" encoding="utf-8"?>
<!-- Generator: Adobe Illustrator 22.1.0, SVG Export Plug-In . SVG Version: 6.00 Build 0)  -->
<svg version="1.1" id="Слой_1" xmlns="http://www.w3.org/2000/svg" xmlns:xlink="http://www.w3.org/1999/xlink" x="0px" y="0px"
	 viewBox="0 0 60 60" style="enable-background:new 0 0 60 60;" xml:space="preserve">
<style type="text/css">
	.st0{fill:#25AAE1;}
</style>
<g>
	<path class="st0" d="M6.3,41.1C16.6,30.8,27,20.4,37.3,10.1c4,4.1,8.1,8.1,12.1,12.2c-10.3,10.3-20.7,20.7-31,31
		C14.4,49.3,10.4,45.2,6.3,41.1z"/>
	<path class="st0" d="M52.9,19c-4.1-4.1-8.2-8.2-12.3-12.3c0.6-0.5,1.1-1.1,1.7-1.7c1.2-1.2,2.5-2.5,3.7-3.7c2-1.9,5.3-1.9,7.3,0
		c2,1.9,4,3.8,5.8,5.9c1.6,1.7,1.5,4-0.2,5.8c-1.9,2-4,4-6,6C53,18.9,52.9,19,52.9,19z"/>
	<path class="st0" d="M2.8,44.6C6.9,48.7,11,52.7,15,56.8c-1,0.3-2.1,0.5-3.1,0.8C8.5,58.4,5.1,59.2,1.7,60
		c-1.4,0.3-2.3-0.5-1.9-1.9C0.8,53.6,1.8,49.2,2.8,44.6C2.8,44.7,2.8,44.6,2.8,44.6z"/>
</g>
</svg>
