<?xml version="1.0" encoding="utf-8"?>
<!-- Generator: Adobe Illustrator 22.1.0, SVG Export Plug-In . SVG Version: 6.00 Build 0)  -->
<svg version="1.1" id="Слой_1" xmlns="http://www.w3.org/2000/svg" xmlns:xlink="http://www.w3.org/1999/xlink" x="0px" y="0px"
	 viewBox="0 0 60 60" style="enable-background:new 0 0 60 60;" xml:space="preserve">
<style type="text/css">
	.st0{fill:#25AAE1;}
	.st1{fill:#FFFFFF;stroke:#AAAAAA;stroke-width:2;stroke-miterlimit:10;}
	.st2{fill:none;stroke:#AAAAAA;stroke-width:2;stroke-miterlimit:10;}
</style>
<g>
	<path class="st0" d="M55,12.7H5c-2.8,0-5,2.2-5,5v37.1c0,2.8,2.2,5,5,5H55c2.8,0,5-2.2,5-5V17.7C60,14.9,57.8,12.7,55,12.7z"/>
	<g>
		<polygon class="st1" points="51.5,24.6 30,37.5 8.5,24.6 8.5,0.2 41,0.2 51.5,10.7 		"/>
		<polyline class="st2" points="41,0.2 41,10.7 51.5,10.7 		"/>
		<line class="st2" x1="13" y1="6.9" x2="36.2" y2="6.9"/>
		<line class="st2" x1="13" y1="14.5" x2="48.8" y2="14.5"/>
		<line class="st2" x1="13" y1="18.8" x2="48.8" y2="18.8"/>
		<line class="st2" x1="13" y1="23" x2="48.8" y2="23"/>
	</g>
</g>
</svg>
