<?xml version="1.0" encoding="utf-8"?>
<!-- Generator: Adobe Illustrator 22.1.0, SVG Export Plug-In . SVG Version: 6.00 Build 0)  -->
<svg version="1.1" id="Слой_1" xmlns="http://www.w3.org/2000/svg" xmlns:xlink="http://www.w3.org/1999/xlink" x="0px" y="0px"
	 viewBox="0 0 60 60" style="enable-background:new 0 0 60 60;" xml:space="preserve">
<style type="text/css">
	.st0{fill:#25AAE1;}
	.st1{fill:none;stroke:#FFFFFF;stroke-width:2;stroke-linecap:round;stroke-miterlimit:10;}
	.st2{fill:none;stroke:#FFFFFF;stroke-width:3;stroke-linecap:round;stroke-miterlimit:10;}
	.st3{fill:#FFFFFF;}
</style>
<g>
	<path class="st0" d="M55,12.9H5c-2.8,0-5,2.2-5,5V55c0,2.8,2.2,5,5,5H55c2.8,0,5-2.2,5-5V17.9C60,15.1,57.8,12.9,55,12.9z"/>
	<g>
		<g>
			<polyline class="st1" points="8.5,25.7 30,38.7 46.7,28.6 			"/>
		</g>
	</g>
	<g>
		<g>
			<polyline class="st2" points="8.5,25.7 30,38.7 51.5,25.7 			"/>
		</g>
	</g>
	<g>
		<g>
			<path class="st0" d="M60,43.1c-2.9-15.2-16-15.2-20.4-15.1v-5.7c0-1.5-1.9-2.3-3-1.2L23.7,34.1c-0.7,0.7-0.7,1.8,0,2.5l12.9,12.9
				c1.1,1.1,3,0.3,3-1.2v-8.1c0.2,0,0.3,0,0.5,0c8.9,0,18.3,0.8,19.3,15.6c0.3-0.5,0.4-0.6,0.4-1.2L60,43.1z"/>
		</g>
		<g>
			<path class="st0" d="M55,34.7c-4.9-5.6-12.5-5.5-15.4-5.4l-1.2,0v-6.9c0-0.3-0.2-0.4-0.3-0.5c-0.1,0-0.4-0.1-0.6,0.1L24.5,34.9
				c-0.2,0.2-0.2,0.5,0,0.7l12.9,12.9c0.2,0.2,0.5,0.2,0.6,0.1c0.1,0,0.3-0.2,0.3-0.5v-9.4l1.6,0.1c10.3,0,16.7,4,19.5,11.8
				C59.5,43.7,58.1,38.3,55,34.7z"/>
			<g>
				<path class="st3" d="M40.8,26.8C40.8,26.8,40.8,26.8,40.8,26.8l0-4.5c0-1.2-0.7-2.3-1.8-2.7c-1.1-0.5-2.4-0.2-3.2,0.6L22.8,33.2
					c-1.1,1.1-1.1,3,0,4.2l12.9,12.9c0.8,0.9,2.1,1.1,3.2,0.6c1.1-0.5,1.8-1.5,1.8-2.7v-6.9c11.2,0.2,17,5.9,17.6,17.3
					c1-0.9,1.7-2.2,1.7-3.7V38.8c-0.8-2.1-1.9-4-3.2-5.6C51.8,27.4,44.6,26.8,40.8,26.8z M39.9,38.9l-1.6-0.1v9.4
					c0,0.3-0.2,0.4-0.3,0.5c-0.1,0.1-0.4,0.1-0.6-0.1L24.5,35.7c-0.2-0.2-0.2-0.5,0-0.7L37.5,22c0.2-0.2,0.5-0.2,0.6-0.1
					c0.1,0,0.3,0.2,0.3,0.5v6.9l1.2,0c2.9-0.1,10.5-0.2,15.4,5.4c3.1,3.6,4.6,8.9,4.4,15.9C56.7,42.9,50.2,38.9,39.9,38.9z"/>
			</g>
		</g>
	</g>
</g>
</svg>
