<?xml version="1.0" encoding="utf-8"?>
<!-- Generator: Adobe Illustrator 24.1.3, SVG Export Plug-In . SVG Version: 6.00 Build 0)  -->
<svg version="1.1" id="Слой_1" xmlns="http://www.w3.org/2000/svg" xmlns:xlink="http://www.w3.org/1999/xlink" x="0px" y="0px"
	 viewBox="0 0 60 60" style="enable-background:new 0 0 60 60;" xml:space="preserve">
<style type="text/css">
	.st0{fill:#25AAE1;}
</style>
<g>
	<path class="st0" d="M16.4,53.5c0.1-1.5,0-3,0.3-4.4c0.9-4.6,4.5-7.7,9.2-7.9c2.9-0.1,5.9-0.1,8.8,0c4.8,0.2,8.8,4.4,8.9,9.2
		c0,2.2,0,4.4,0,6.6c0,0.4-0.1,0.5-0.4,0.6c-2.6,1-5.3,1.7-8,2c-2.3,0.2-4.6,0.3-6.8,0.3c-3.9-0.1-7.7-0.8-11.3-2.2
		c-0.4-0.1-0.6-0.3-0.5-0.8C16.5,55.8,16.4,54.7,16.4,53.5L16.4,53.5z"/>
	<path class="st0" d="M46,54.3c0-1.1,0-2,0-2.9c0.1-6-3.7-10.6-8.5-12c-0.1,0-0.1-0.1-0.2-0.1c0.1-0.1,0.2-0.3,0.3-0.4
		c0.3-0.5,0.8-1,1-1.6c0.4-1.6,1.7-1.7,2.9-1.7c3.3-0.1,6.6-0.2,9.9,0c4.1,0.3,7.5,3.4,8.3,7.4c0.2,0.8,0.2,1.6,0.2,2.4
		c0,1.9,0,3.9,0,5.8c0,0.4-0.1,0.6-0.5,0.8c-3.1,1.1-6.2,1.9-9.5,2.1C48.6,54.2,47.4,54.2,46,54.3z"/>
	<path class="st0" d="M14,54.4c-2-0.1-3.8-0.2-5.6-0.4c-2.7-0.3-5.2-1-7.7-1.9C0.2,51.9,0,51.7,0,51.2c0.1-2.3,0-4.7,0.1-7
		c0.3-4.2,3.5-7.8,7.6-8.5c0.5-0.1,1-0.2,1.5-0.2c3,0,6.1,0,9.1,0c0.2,0,0.3,0,0.5,0c1.1,0.2,2.2,0.4,2.6,1.8c0.2,0.7,0.8,1.3,1.2,2
		c-3.1,1-5.5,2.9-7.2,5.7C13.9,47.9,14,51,14,54.4z"/>
	<path class="st0" d="M39.1,27c0-4.1,3.2-7.3,7.4-7.2c4,0,7.3,3.3,7.2,7.3c0,4-3.4,7.3-7.3,7.3C42.3,34.4,39.1,31.1,39.1,27z"/>
	<path class="st0" d="M20.9,27.1c0,4-3.3,7.3-7.3,7.3s-7.4-3.3-7.3-7.3c0-4,3.3-7.3,7.4-7.3C17.7,19.8,20.9,23,20.9,27.1z"/>
	<path class="st0" d="M30,25.5c3.8-0.1,7.2,3.1,7.3,7c0.1,4.1-3,7.5-7.3,7.6c-4,0.1-7.3-3.3-7.3-7.3S25.9,25.5,30,25.5z"/>
	<g>
		<path class="st0" d="M23.3,4.3h-2.6v15.9c1.4,1.5,2.3,3.3,2.6,5.4V4.3z"/>
	</g>
</g>
<g>
	<path class="st0" d="M28.7,5.4c-1.6-0.3-3.1-0.3-4.5-0.3v10.6c1.3-0.1,2.9-0.1,4.5,0.3c0.6,0.1,1.3,0.3,1.9,0.4c0-1.2,0-2.4,0-3.6
		c0-0.2,0-0.2-0.2-0.2c-0.4,0-0.7,0-1.1,0c-0.1,0-0.1,0-0.1-0.1c0-0.5,0-1,0-1.5c0-0.1,0.1-0.1,0.1-0.1c0.4,0,0.8,0,1.2,0
		c0.1,0,0.1-0.1,0.1-0.1c0-0.4,0-0.7,0-1.1c0-0.4,0.1-0.9,0.3-1.3c0.3-0.6,0.9-0.9,1.5-0.9c0.5-0.1,1.1,0,1.6,0c0.1,0,0.1,0,0.1,0.1
		c0,0.4,0,0.9,0,1.3c0,0.1,0,0.1-0.1,0.1c-0.3,0-0.6,0-0.9,0c-0.1,0-0.2,0-0.3,0.1c-0.3,0.1-0.4,0.3-0.4,0.5c0,0.1,0,0.3,0,0.5
		c0,0.2,0,0.5,0,0.7c0,0.1,0,0.1,0.1,0.1c0.5,0,0.9,0,1.4,0c0,0,0.1,0,0.1,0c0,0.2,0,0.4-0.1,0.6c-0.1,0.3-0.1,0.7-0.1,1
		c0,0.1-0.1,0.1-0.1,0.1c-0.4,0-0.8,0-1.2,0c-0.1,0-0.1,0-0.1,0.1c0,1.3,0,2.7-0.1,4c2.7,0.5,5.1,0.7,7-0.7V5
		C37.7,6.1,32.9,6.2,28.7,5.4z"/>
</g>
</svg>
