<?xml version="1.0" encoding="utf-8"?>
<!-- Generator: Adobe Illustrator 22.1.0, SVG Export Plug-In . SVG Version: 6.00 Build 0)  -->
<svg version="1.1" id="Capa_1" xmlns="http://www.w3.org/2000/svg" xmlns:xlink="http://www.w3.org/1999/xlink" x="0px" y="0px"
	 viewBox="0 0 63.3 63.3" style="enable-background:new 0 0 63.3 63.3;" xml:space="preserve">
<style type="text/css">
	.st0{fill:#25AAE1;}
	.st1{fill:#FFFFFF;}
</style>
<g>
	<path class="st0" d="M8.9,1.5H6.3C5,1.5,4,2.5,4,3.8v58h7.2v-58C11.2,2.5,10.2,1.5,8.9,1.5z"/>
	<rect x="1.5" y="35.4" class="st0" width="16.8" height="8.9"/>
	<rect x="1.5" y="8.2" class="st0" width="16.8" height="8.9"/>
	<g>
		<polygon class="st0" points="61.8,8.2 14.3,8.2 14.3,44.3 24.6,44.3 24.6,10.2 46.6,10.2 46.6,44.3 61.8,44.3 55.9,26.3 		"/>
		<path class="st1" d="M38.6,30.2c0-0.4,0.1-0.5,0.5-0.5c1.4,0,2.8,0,4.1,0c0.3,0,0.5-0.1,0.5-0.5c0.1-1.2,0.3-2.4,0.5-3.6
			c0.1-0.6,0.1-1.3,0.2-2c-0.2,0-0.4,0-0.5,0c-1.6,0-3.2,0-4.8,0c-0.4,0-0.5-0.1-0.5-0.5c0-0.8,0-1.6,0-2.4c0-0.5,0-1.1,0.1-1.6
			c0.1-0.9,0.6-1.5,1.5-1.8c0.3-0.1,0.7-0.2,1-0.2c1,0,2,0,3,0c0.3,0,0.5-0.1,0.4-0.4c0-1.5,0-3.1,0-4.6c0-0.3-0.1-0.4-0.4-0.4
			c-1.9-0.1-3.8-0.3-5.7-0.1c-2.2,0.3-4,1.3-5.2,3.3c-0.8,1.4-1,2.9-1.1,4.4c0,1.3,0,2.6,0,3.9c0,0.3-0.1,0.5-0.5,0.5
			c-1.4,0-2.8,0-4.2,0c-0.3,0-0.5,0.1-0.5,0.5c0,1.7,0,3.4,0,5.1c0,0.4,0.1,0.5,0.5,0.5c1.3,0,2.6,0,3.9,0c0.7,0,0.7,0,0.7,0.7
			c0,4.6,0,9.3,0,13.9c0,0,0,0,0,0.1h6.2c0,0,0,0,0-0.1C38.6,39.6,38.6,34.9,38.6,30.2z"/>
		<path class="st0" d="M24.6,10.2v34.1h7.8c0,0,0,0,0-0.1c0-4.6,0-9.3,0-13.9c0-0.7,0-0.7-0.7-0.7c-1.3,0-2.6,0-3.9,0
			c-0.4,0-0.5-0.1-0.5-0.5c0-1.7,0-3.4,0-5.1c0-0.4,0.1-0.5,0.5-0.5c1.4,0,2.8,0,4.2,0c0.4,0,0.5-0.1,0.5-0.5c0-1.3,0-2.6,0-3.9
			c0-1.5,0.3-3.1,1.1-4.4c1.2-2,3-3,5.2-3.3c1.9-0.3,3.8,0,5.7,0.1c0.3,0,0.4,0.2,0.4,0.4c0,1.5,0,3.1,0,4.6c0,0.3-0.1,0.4-0.4,0.4
			c-1,0-2,0-3,0c-0.3,0-0.7,0.1-1,0.2c-0.9,0.3-1.4,0.9-1.5,1.8c0,0.5-0.1,1.1-0.1,1.6c0,0.8,0,1.6,0,2.4c0,0.4,0.1,0.5,0.5,0.5
			c1.6,0,3.2,0,4.8,0c0.2,0,0.3,0,0.5,0c-0.1,0.7-0.1,1.3-0.2,2c-0.2,1.2-0.3,2.4-0.5,3.6c0,0.4-0.2,0.5-0.5,0.5c-1.4,0-2.8,0-4.1,0
			c-0.4,0-0.5,0.1-0.5,0.5c0,4.7,0,9.4,0,14.1c0,0,0,0,0,0.1h8V10.2H24.6z"/>
	</g>
</g>
</svg>
