<?xml version="1.0" encoding="utf-8"?>
<!-- Generator: Adobe Illustrator 22.1.0, SVG Export Plug-In . SVG Version: 6.00 Build 0)  -->
<svg version="1.1" id="Слой_1" xmlns="http://www.w3.org/2000/svg" xmlns:xlink="http://www.w3.org/1999/xlink" x="0px" y="0px"
	 viewBox="0 0 60 60" style="enable-background:new 0 0 60 60;" xml:space="preserve">
<style type="text/css">
	.st0{fill:#25AAE1;}
	.st1{fill:#FFFFFF;stroke:#FFFFFF;stroke-miterlimit:10;}
</style>
<path class="st0" d="M53.9,0H6.1C2.7,0,0,2.7,0,6.1v47.8C0,57.3,2.7,60,6.1,60h47.8c3.4,0,6.1-2.7,6.1-6.1V6.1C60,2.7,57.3,0,53.9,0
	z"/>
<g>
	<path class="st1" d="M26,36.6l-0.1-1.3c-0.3-2.6,0.6-5.5,3-8.5c2.2-2.6,3.4-4.5,3.4-6.7c0-2.5-1.6-4.2-4.6-4.2
		c-1.8,0-3.7,0.6-4.9,1.5l-1.2-3.1c1.6-1.2,4.4-2,7-2c5.6,0,8.2,3.5,8.2,7.2c0,3.3-1.9,5.7-4.2,8.5c-2.1,2.5-2.9,4.7-2.8,7.2l0,1.3
		H26z M24.9,43.4c0-1.8,1.2-3.1,2.9-3.1s2.9,1.3,2.9,3.1c0,1.7-1.1,3-2.9,3C26.1,46.4,24.9,45.1,24.9,43.4z"/>
</g>
</svg>
