<svg id="Capa_1" data-name="Capa 1" xmlns="http://www.w3.org/2000/svg" viewBox="0 0 43.28 63.3"><defs><style>.cls-1{fill:#25aae1;}</style></defs><path class="cls-1" d="M15.27.64a1.43,1.43,0,0,1,1.44,1.44c0,.23,0,.5,0,.8H46.41c0-.3,0-.57,0-.8a1.44,1.44,0,1,1,2.88,0c0,.23,0,.5,0,.8h2.55a1.44,1.44,0,0,0,0-2.88H11.45a1.44,1.44,0,1,0,0,2.88h2.36c0-.3,0-.57,0-.8A1.44,1.44,0,0,1,15.27.64Z" transform="translate(-10.01)"/><path class="cls-1" d="M13.83,61.86c0-.36,0-.82,0-1.36v-.08H11.45a1.44,1.44,0,0,0,0,2.88h3.82A1.44,1.44,0,0,1,13.83,61.86Z" transform="translate(-10.01)"/><path class="cls-1" d="M46.4,61.86c0-.38,0-.87,0-1.44H16.67c0,.57,0,1.06,0,1.44a1.43,1.43,0,0,1-1.44,1.44H47.84A1.43,1.43,0,0,1,46.4,61.86Z" transform="translate(-10.01)"/><path class="cls-1" d="M51.85,60.42H49.32v.08c0,.54,0,1,0,1.36a1.44,1.44,0,0,1-1.44,1.44h4a1.44,1.44,0,1,0,0-2.88Z" transform="translate(-10.01)"/><path class="cls-1" d="M30.15,31.47a1.22,1.22,0,0,1,0,.27A1.22,1.22,0,0,0,30.15,31.47Z" transform="translate(-10.01)"/><path class="cls-1" d="M30,32.12c0,.05,0,.1-.06.14h0A.84.84,0,0,0,30,32.12Z" transform="translate(-10.01)"/><path class="cls-1" d="M29.72,30.45a1.52,1.52,0,0,1,.22.22A2.28,2.28,0,0,0,29.72,30.45Z" transform="translate(-10.01)"/><path class="cls-1" d="M30.15,31.19a1.69,1.69,0,0,0-.15-.37A1.69,1.69,0,0,1,30.15,31.19Z" transform="translate(-10.01)"/><path class="cls-1" d="M29.91,32.29a1.37,1.37,0,0,1-.34.34A1.22,1.22,0,0,0,29.91,32.29Z" transform="translate(-10.01)"/><path class="cls-1" d="M29.53,30.27h0C15.88,21.32,16.43,8.87,16.66,3.56c0-.25,0-.47,0-.68H13.81c0,.18,0,.35,0,.55-.23,5.09-.81,18.28,12.44,28,.55-.41,1.12-.81,1.72-1.21A1.44,1.44,0,0,1,29.53,30.27Z" transform="translate(-10.01)"/><path class="cls-1" d="M16.71,2.08a1.44,1.44,0,0,0-2.88,0c0,.23,0,.5,0,.8h2.88C16.7,2.58,16.71,2.31,16.71,2.08Z" transform="translate(-10.01)"/><path class="cls-1" d="M30,32.12a1.58,1.58,0,0,0,.15-.38A1.77,1.77,0,0,1,30,32.12Z" transform="translate(-10.01)"/><path class="cls-1" d="M30.15,31.19a1.31,1.31,0,0,1,0,.28A1.31,1.31,0,0,0,30.15,31.19Z" transform="translate(-10.01)"/><path class="cls-1" d="M29.53,30.27a1.62,1.62,0,0,1,.19.18C29.65,30.39,29.6,30.32,29.53,30.27Z" transform="translate(-10.01)"/><path class="cls-1" d="M29.94,30.67s0,.1.06.15a.59.59,0,0,0-.06-.14Z" transform="translate(-10.01)"/><path class="cls-1" d="M29.94,32.26s0,0,0,0Z" transform="translate(-10.01)"/><path class="cls-1" d="M16.67,60.38c-.25-5.61-.81-18.75,12.86-27.71,0,0,0,0,0,0a1.38,1.38,0,0,1-.83.28,1.43,1.43,0,0,1-.79-.24c-.6-.39-1.17-.79-1.72-1.2C13,41.24,13.55,55,13.78,60.42h2.89Z" transform="translate(-10.01)"/><path class="cls-1" d="M16.71,61.86c0-.38,0-.87,0-1.44H13.78v.08c0,.54,0,1,0,1.36a1.44,1.44,0,0,0,2.88,0Z" transform="translate(-10.01)"/><path class="cls-1" d="M28.74,32.91a1.49,1.49,0,0,0,1.17-.62s0,0,0,0,0-.09.06-.14a1.77,1.77,0,0,0,.15-.38,1.22,1.22,0,0,0,0-.27,1.31,1.31,0,0,0,0-.28,1.69,1.69,0,0,0-.15-.37c0-.05,0-.1-.06-.15a1.52,1.52,0,0,0-.22-.22,1.62,1.62,0,0,0-.19-.18,1.44,1.44,0,0,0-1.58,0c-.6.4-1.17.8-1.72,1.21.55.41,1.12.81,1.72,1.2A1.43,1.43,0,0,0,28.74,32.91Z" transform="translate(-10.01)"/><path class="cls-1" d="M33,31.74a1.22,1.22,0,0,1,0-.27A1.22,1.22,0,0,0,33,31.74Z" transform="translate(-10.01)"/><path class="cls-1" d="M33.17,30.67a1.52,1.52,0,0,1,.22-.22A2.28,2.28,0,0,0,33.17,30.67Z" transform="translate(-10.01)"/><path class="cls-1" d="M33.17,32.26a.59.59,0,0,1-.06-.14l0,.14Z" transform="translate(-10.01)"/><path class="cls-1" d="M33.11,30.82a1.69,1.69,0,0,0-.15.37A1.31,1.31,0,0,1,33.11,30.82Z" transform="translate(-10.01)"/><path class="cls-1" d="M33.54,32.63a1.37,1.37,0,0,1-.34-.34A1.22,1.22,0,0,0,33.54,32.63Z" transform="translate(-10.01)"/><path class="cls-1" d="M46.44,3.56c.24,5.31.79,17.76-12.86,26.7h0a1.46,1.46,0,0,1,1.59,0c.6.4,1.17.8,1.72,1.21,13.24-9.76,12.67-22.95,12.44-28,0-.2,0-.37,0-.55H46.41C46.42,3.09,46.43,3.31,46.44,3.56Z" transform="translate(-10.01)"/><path class="cls-1" d="M47.84.64A1.43,1.43,0,0,0,46.4,2.08c0,.23,0,.5,0,.8H49.3c0-.3,0-.57,0-.8A1.44,1.44,0,0,0,47.84.64Z" transform="translate(-10.01)"/><path class="cls-1" d="M33,31.74a1.58,1.58,0,0,0,.15.38A1.37,1.37,0,0,1,33,31.74Z" transform="translate(-10.01)"/><path class="cls-1" d="M34.37,32.91a1.38,1.38,0,0,1-.83-.28l0,0c13.67,9,13.1,22.1,12.86,27.71v0h2.88c.24-5.41.76-19.18-12.44-28.95-.55.41-1.12.81-1.72,1.2A1.43,1.43,0,0,1,34.37,32.91Z" transform="translate(-10.01)"/><path class="cls-1" d="M33.2,32.29s0,0,0,0Z" transform="translate(-10.01)"/><path class="cls-1" d="M33.11,30.82a.94.94,0,0,1,.06-.15h0S33.13,30.77,33.11,30.82Z" transform="translate(-10.01)"/><path class="cls-1" d="M33,31.47a1.31,1.31,0,0,1,0-.28A1.31,1.31,0,0,0,33,31.47Z" transform="translate(-10.01)"/><path class="cls-1" d="M33.39,30.45a1.53,1.53,0,0,1,.18-.18A1.53,1.53,0,0,0,33.39,30.45Z" transform="translate(-10.01)"/><path class="cls-1" d="M49.28,61.86c0-.36,0-.82,0-1.36v-.08H46.44c0,.57,0,1.06,0,1.44a1.44,1.44,0,1,0,2.88,0Z" transform="translate(-10.01)"/><path class="cls-1" d="M33.57,30.27a35383620402921.27,35383620402921.27,0,0,0-.4.4.94.94,0,0,0-.06.15.89.89,0,0,0-.15.65,1.22,1.22,0,0,0,0,.27,1.37,1.37,0,0,0,.15.38.59.59,0,0,0,.06.14s0,0,0,0a1.49,1.49,0,0,0,1.17.62,1.43,1.43,0,0,0,.79-.24c.6-.39,1.17-.79,1.72-1.2-.55-.41-1.12-.81-1.72-1.21A1.46,1.46,0,0,0,33.57,30.27Z" transform="translate(-10.01)"/><path class="cls-1" d="M31.65,37.07C20.94,45.4,21.37,51.94,21.37,56l10.28,0,10.28,0C41.93,51.94,42.36,45.4,31.65,37.07Z" transform="translate(-10.01)"/><path class="cls-1" d="M40.74,14.5H22.56c1.25,3.15,3.82,6.81,9.09,10.91C36.92,21.31,39.49,17.65,40.74,14.5Z" transform="translate(-10.01)"/></svg>