<?xml version="1.0" encoding="utf-8"?>
<!-- Generator: Adobe Illustrator 24.2.3, SVG Export Plug-In . SVG Version: 6.00 Build 0)  -->
<svg version="1.1" id="Capa_1" xmlns="http://www.w3.org/2000/svg" xmlns:xlink="http://www.w3.org/1999/xlink" x="0px" y="0px"
	 viewBox="0 0 63.3 63.3" style="enable-background:new 0 0 63.3 63.3;" xml:space="preserve">
<style type="text/css">
	.st0{fill:#333333;}
	.st1{fill:#FFFFFF;}
	.st2{fill:#25AAE1;}
</style>
<g>
	<polygon class="st0" points="23.8,15 23.8,15.4 24,15 	"/>
	<path class="st1" d="M32.4,45.4c-3.1-0.5-6.1,2.3-5.8,5.6c0.2,2.6,2.2,4.5,4.9,4.5c3,0,4.9-2.2,4.9-5C36.5,47.8,35,45.8,32.4,45.4z
		"/>
	<path class="st1" d="M28.3,39.4c0.1,1.8,1.6,3.1,3.4,3.1c1.8,0,3.2-1.4,3.4-3.1l0.8-17.5c0.1-1.4-0.8-5.2-4.2-5.2s-4.3,3.9-4.2,5.2
		L28.3,39.4z"/>
	<path class="st2" d="M63,56.3L33.4,4.9c-0.7-1.4-2.7-1.4-3.5,0L24,15.1l-0.2,0.4L0.3,56.4c-0.7,1.4,0.2,3,1.8,3h59.2
		C62.8,59.3,63.8,57.6,63,56.3z M31.6,55.4c-2.8,0-4.7-1.9-4.9-4.5c-0.3-3.2,2.6-6,5.8-5.6c2.4,0.3,4,2.3,4.1,4.9
		C36.5,53.2,34.6,55.4,31.6,55.4z M31.6,16.6c3.4,0,4.3,3.9,4.2,5.2L35,39.4c-0.1,1.8-1.6,3.1-3.4,3.1c-1.8,0-3.2-1.4-3.4-3.1
		l-0.8-17.5C27.4,20.5,28.2,16.6,31.6,16.6z"/>
</g>
</svg>
