<?xml version="1.0" encoding="utf-8"?>
<!-- Generator: Adobe Illustrator 22.1.0, SVG Export Plug-In . SVG Version: 6.00 Build 0)  -->
<svg version="1.1" id="Слой_1" xmlns="http://www.w3.org/2000/svg" xmlns:xlink="http://www.w3.org/1999/xlink" x="0px" y="0px"
	 viewBox="0 0 60 60" style="enable-background:new 0 0 60 60;" xml:space="preserve">
<style type="text/css">
	.st0{fill:#25AAE1;}
</style>
<path class="st0" d="M30.7,28.7L18.7,17.2c-0.9-0.9-2.4-0.3-2.4,1v6.2H0.1v11.2h16.3v6.2c0,1.2,1.5,1.9,2.4,1l11.9-11.5
	C31.4,30.6,31.4,29.4,30.7,28.7z"/>
<path class="st0" d="M55.4,0h-42c-2.5,0-4.5,2-4.5,4.5v16.3h2.9V4.5c0-0.9,0.7-1.7,1.7-1.7h42c0.9,0,1.7,0.7,1.7,1.7v51
	c0,0.9-0.7,1.7-1.7,1.7h-42c-0.9,0-1.7-0.7-1.7-1.7V39.3H8.9v16.2c0,2.5,2,4.5,4.5,4.5h42c2.5,0,4.5-2,4.5-4.5v-51
	C59.9,2,57.9,0,55.4,0z"/>
</svg>
