<?xml version="1.0" encoding="utf-8"?>
<!-- Generator: Adobe Illustrator 24.3.0, SVG Export Plug-In . SVG Version: 6.00 Build 0)  -->
<svg version="1.1" id="Слой_1" xmlns="http://www.w3.org/2000/svg" xmlns:xlink="http://www.w3.org/1999/xlink" x="0px" y="0px"
	 viewBox="0 0 60 60" style="enable-background:new 0 0 60 60;" xml:space="preserve">
<style type="text/css">
	.st0{fill:#25AAE1;}
	.st1{fill:#FFFFFF;}
</style>
<g>
	<path class="st0" d="M53.9,0H6.1C2.7,0,0,2.7,0,6.1v47.8C0,57.3,2.7,60,6.1,60h47.8c3.4,0,6.1-2.7,6.1-6.1V6.1
		C60.1,2.7,57.3,0,53.9,0z"/>
	<path class="st1" d="M46.8,11.2H27.1c-1.7,0-2.5,2-1.3,3.2l6.1,6.1L12,40.4c-0.9,0.9-0.9,2.3,0,3.2l4.5,4.5c0.9,0.9,2.3,0.9,3.2,0
		l19.9-19.9l6,6c1.2,1.2,3.2,0.3,3.2-1.3V13.2C48.8,12.1,47.9,11.2,46.8,11.2z"/>
</g>
</svg>
