<?xml version="1.0" encoding="utf-8"?>
<!-- Generator: Adobe Illustrator 22.1.0, SVG Export Plug-In . SVG Version: 6.00 Build 0)  -->
<svg version="1.1" id="Слой_1" xmlns="http://www.w3.org/2000/svg" xmlns:xlink="http://www.w3.org/1999/xlink" x="0px" y="0px"
	 viewBox="0 0 60 60" style="enable-background:new 0 0 60 60;" xml:space="preserve">
<style type="text/css">
	.st0{fill:#FFFFFF;}
	.st1{fill:#25AAE1;}
</style>
<g>
	<path class="st0" d="M10.2,54.3h39.5c2,0,3.7-1.6,3.7-3.6V30.4c0-2-1.7-3.6-3.7-3.6H10.2c-2,0-3.7,1.6-3.7,3.6v20.2
		C6.5,52.7,8.2,54.3,10.2,54.3z M38.7,32.9c0-0.6,0.5-1.2,1.2-1.2h5.1c0.7,0,1.2,0.5,1.2,1.2v5c0,0.6-0.5,1.2-1.2,1.2h-5.1
		c-0.7,0-1.2-0.5-1.2-1.2V32.9z M26.2,32.9c0-0.6,0.5-1.2,1.2-1.2h5.1c0.7,0,1.2,0.5,1.2,1.2v5c0,0.6-0.5,1.2-1.2,1.2h-5.1
		c-0.7,0-1.2-0.5-1.2-1.2V32.9z M26.2,45c0-0.6,0.5-1.2,1.2-1.2h5.1c0.7,0,1.2,0.5,1.2,1.2v5c0,0.6-0.5,1.2-1.2,1.2h-5.1
		c-0.7,0-1.2-0.5-1.2-1.2V45z M13.7,32.9c0-0.6,0.5-1.2,1.2-1.2h5.1c0.7,0,1.2,0.5,1.2,1.2v5c0,0.6-0.5,1.2-1.2,1.2h-5.1
		c-0.7,0-1.2-0.5-1.2-1.2V32.9z M13.7,45c0-0.6,0.5-1.2,1.2-1.2h5.1c0.7,0,1.2,0.5,1.2,1.2v5c0,0.6-0.5,1.2-1.2,1.2h-5.1
		c-0.7,0-1.2-0.5-1.2-1.2V45z"/>
	<path class="st1" d="M54.7,6.2h-0.8v7.1c0,3.3-2.7,5.9-6.1,5.9h-3.3c-3.4,0-6.1-2.6-6.1-5.9V6.2H21.6v7.1c0,3.3-2.7,5.9-6.1,5.9
		h-3.3c-3.4,0-6.1-2.6-6.1-5.9V6.2H5.3C2.4,6.2,0,8.5,0,11.3v43.5c0,2.8,2.4,5.1,5.3,5.1h49.4c2.9,0,5.3-2.3,5.3-5.1V11.3
		C60,8.5,57.6,6.2,54.7,6.2z M53.5,50.7c0,2-1.7,3.6-3.7,3.6H10.2c-2,0-3.7-1.6-3.7-3.6V30.4c0-2,1.7-3.6,3.7-3.6h39.5
		c2,0,3.7,1.6,3.7,3.6V50.7z"/>
	<path class="st1" d="M39.9,39h5.1c0.7,0,1.2-0.5,1.2-1.2v-5c0-0.6-0.5-1.2-1.2-1.2h-5.1c-0.7,0-1.2,0.5-1.2,1.2v5
		C38.7,38.5,39.3,39,39.9,39z"/>
	<path class="st1" d="M14.9,39h5.1c0.7,0,1.2-0.5,1.2-1.2v-5c0-0.6-0.5-1.2-1.2-1.2h-5.1c-0.7,0-1.2,0.5-1.2,1.2v5
		C13.7,38.5,14.3,39,14.9,39z"/>
	<path class="st1" d="M27.4,39h5.1c0.7,0,1.2-0.5,1.2-1.2v-5c0-0.6-0.5-1.2-1.2-1.2h-5.1c-0.7,0-1.2,0.5-1.2,1.2v5
		C26.2,38.5,26.8,39,27.4,39z"/>
	<path class="st1" d="M14.9,51.1h5.1c0.7,0,1.2-0.5,1.2-1.2v-5c0-0.6-0.5-1.2-1.2-1.2h-5.1c-0.7,0-1.2,0.5-1.2,1.2v5
		C13.7,50.6,14.3,51.1,14.9,51.1z"/>
	<path class="st1" d="M27.4,51.1h5.1c0.7,0,1.2-0.5,1.2-1.2v-5c0-0.6-0.5-1.2-1.2-1.2h-5.1c-0.7,0-1.2,0.5-1.2,1.2v5
		C26.2,50.6,26.8,51.1,27.4,51.1z"/>
	<path class="st1" d="M11.3,16.1H16c1.1,0,2-0.9,2-1.9V1.6c0-1.1-0.9-1.9-2-1.9h-4.7c-1.1,0-2,0.9-2,1.9v12.6
		C9.3,15.3,10.2,16.1,11.3,16.1z"/>
	<path class="st1" d="M44,16.1h4.7c1.1,0,2-0.9,2-1.9V1.6c0-1.1-0.9-1.9-2-1.9H44c-1.1,0-2,0.9-2,1.9v12.6
		C42,15.3,42.9,16.1,44,16.1z"/>
</g>
<polygon class="st1" points="45.9,43.7 41.5,48.1 39.1,45.7 37.7,47.1 41.5,50.9 47.3,45.1 "/>
</svg>
