<?xml version="1.0" encoding="utf-8"?>
<!-- Generator: Adobe Illustrator 22.1.0, SVG Export Plug-In . SVG Version: 6.00 Build 0)  -->
<svg version="1.1" id="Слой_1" xmlns="http://www.w3.org/2000/svg" xmlns:xlink="http://www.w3.org/1999/xlink" x="0px" y="0px"
	 viewBox="0 0 60 60" style="enable-background:new 0 0 60 60;" xml:space="preserve">
<style type="text/css">
	.st0{fill:#25AAE1;}
</style>
<g>
	<path class="st0" d="M30.1,8.3c7.1,0,13.4,3.4,17.3,8.7l-7.6,7.6h20.2V4.4l-6.6,6.6C47.8,4.3,39.4,0,30.1,0
		c-16.5,0-30,13.4-30,29.9h8.3C8.4,18,18.1,8.3,30.1,8.3z"/>
	<path class="st0" d="M60.1,29.9h-8.3c0,0,0,0,0,0.1c0,12-9.7,21.7-21.7,21.7c-7.1,0-13.4-3.4-17.4-8.7l7.4-7.4H-0.1v20.2l6.9-6.9
		C12.3,55.7,20.7,60,30.1,60C46.6,60,60.1,46.6,60.1,29.9C60.1,30,60.1,30,60.1,29.9z"/>
</g>
</svg>
