<?xml version="1.0" encoding="utf-8"?>
<!-- Generator: Adobe Illustrator 24.3.0, SVG Export Plug-In . SVG Version: 6.00 Build 0)  -->
<svg version="1.1" xmlns="http://www.w3.org/2000/svg" xmlns:xlink="http://www.w3.org/1999/xlink" x="0px" y="0px"
	 viewBox="0 0 60 60" style="enable-background:new 0 0 60 60;" xml:space="preserve">
<style type="text/css">
	.st0{display:none;}
	.st1{display:inline;}
	.st2{display:inline;clip-path:url(#SVGID_2_);}
	.st3{fill:#25AAE1;}
	.st4{clip-path:url(#SVGID_4_);}
	.st5{clip-path:url(#SVGID_6_);}
	.st6{display:inline;clip-path:url(#SVGID_8_);}
	.st7{clip-path:url(#SVGID_10_);}
	.st8{clip-path:url(#SVGID_12_);}
	.st9{display:inline;clip-path:url(#SVGID_14_);}
	.st10{display:inline;fill:#25AAE1;}
	.st11{display:inline;fill:#25AAE1;}
	.st12{display:inline;clip-path:url(#SVGID_16_);}
	.st13{display:inline;clip-path:url(#SVGID_18_);}
	.st14{display:none;fill:#25AAE1;}
</style>
<g id="Layer_2">
	<g id="Layer_3">
	</g>
	<path class="st3" d="M0.1,25.1C0.4,24.4,0.6,23.6,1,23c0.9-1.4,2.3-2,3.9-2c5.7,0,11.3,0,17,0c2.8,0,4.8,2,4.8,4.8
		c0,8.5,0,17.1,0,25.6c0,2.9-1.9,4.8-4.8,4.8c-5.6,0-11.3,0-16.9,0c-2.6,0-4.4-1.7-4.8-4c0,0,0-0.1-0.1-0.1
		C0.1,43.2,0.1,34.1,0.1,25.1z M22.7,49.7c0-0.2,0-0.3,0-0.5c0-7.8,0-15.5,0-23.3c0-0.8-0.2-1-1-1c-5.5,0-11.1,0-16.6,0
		c-0.9,0-1,0.2-1,1.1c0,7.7,0,15.3,0,23c0,0.2,0,0.4,0,0.6C10.4,49.7,16.5,49.7,22.7,49.7z M13.4,51.2c-0.9,0-1.6,0.7-1.6,1.6
		c0,0.9,0.7,1.6,1.6,1.6c0.9,0,1.6-0.7,1.6-1.6C15,51.9,14.3,51.2,13.4,51.2z"/>
	<path class="st3" d="M11,17c-1.4,0-2.6,0-3.9,0c0-0.1,0-0.3,0-0.4c0-2.7,0-5.4,0-8.1c0-2.1,1.2-3.7,3.3-4.2
		c0.4-0.1,0.9-0.1,1.4-0.1c13,0,26.1,0,39.1,0c2.4,0,4,1.2,4.5,3.3c0.1,0.4,0.1,0.8,0.1,1.3c0,8.8,0,17.7,0,26.5
		c0,2.3-1.2,3.9-3.2,4.4c-0.4,0.1-0.9,0.2-1.3,0.2c-6.6,0-13.2,0-19.7,0c-0.1,0-0.3,0-0.4,0c0-1.3,0-2.6,0-3.9c0.2,0,0.4,0,0.7,0
		c6.4,0,12.8,0,19.2,0c0.9,0,0.9,0,0.9-0.9c0-8.6,0-17.3,0-25.9c0-0.9,0-0.9-0.9-0.9C37.7,8,24.8,8,11.9,8C11,8,11,8,11,8.9
		c0,2.5,0,5,0,7.4C11,16.6,11,16.8,11,17z"/>
	<path class="st3" d="M30.7,47c0-1.9,0-3.7,0-5.6c0.2,0,0.4,0,0.6,0c8.9,0,17.8,0,26.7,0c1.4,0,2.2,0.9,1.9,2.3
		c-0.4,2-2.1,3.3-4.4,3.3c-7.3,0-14.7,0-22,0C32.7,47,31.7,47,30.7,47z"/>
</g>
<g id="Layer_4">
</g>
<g id="Layer_5">
</g>
<g id="Layer_6">
</g>
<g id="Layer_7">
</g>
</svg>
