<?xml version="1.0" encoding="utf-8"?>
<!-- Generator: Adobe Illustrator 22.1.0, SVG Export Plug-In . SVG Version: 6.00 Build 0)  -->
<svg version="1.1" id="Слой_1" xmlns="http://www.w3.org/2000/svg" xmlns:xlink="http://www.w3.org/1999/xlink" x="0px" y="0px"
	 viewBox="0 0 60 60" style="enable-background:new 0 0 60 60;" xml:space="preserve">
<style type="text/css">
	.st0{fill:#25AAE1;}
	.st1{fill:#FFFFFF;}
	.st2{fill:#FF0000;}
</style>
<g>
	<g>
		<path class="st0" d="M50.2,57.2H9.8c-3.9,0-7-3.1-7-7V9.8c0-3.9,3.1-7,7-7h40.4c3.9,0,7,3.1,7,7v40.4
			C57.2,54.1,54.1,57.2,50.2,57.2z"/>
		<path class="st0" d="M47.4,60H12.6C5.7,60,0,54.3,0,47.4V12.6C0,5.7,5.7,0,12.6,0h34.7C54.3,0,60,5.7,60,12.6v34.7
			C60,54.3,54.3,60,47.4,60z M12.6,5.6c-3.9,0-7,3.1-7,7v34.7c0,3.9,3.1,7,7,7h34.7c3.9,0,7-3.1,7-7V12.6c0-3.9-3.1-7-7-7H12.6z"/>
	</g>
	<g>
		<polyline class="st0" points="51.2,16.6 24.5,43.4 8.8,27.6 		"/>
		<polygon class="st1" points="24.5,47.3 6.8,29.6 10.7,25.6 24.5,39.4 49.3,14.7 53.2,18.6 		"/>
	</g>
</g>
<g>
	<path class="st2" d="M48.4,36.9c-6.4,0-11.6,5.2-11.6,11.6S42.1,60,48.4,60C54.8,60,60,54.8,60,48.4S54.8,36.9,48.4,36.9z"/>
	<g>
		<path class="st1" d="M46.5,54.1c0-1.1,0.8-1.9,1.9-1.9s1.9,0.8,1.9,1.9c0,1.1-0.7,1.9-1.9,1.9C47.3,56.1,46.5,55.2,46.5,54.1z
			 M47.2,51.2l-0.5-9.5h3.3l-0.5,9.5H47.2z"/>
	</g>
</g>
</svg>
