<?xml version="1.0" encoding="utf-8"?>
<!-- Generator: Adobe Illustrator 24.3.0, SVG Export Plug-In . SVG Version: 6.00 Build 0)  -->
<svg version="1.1" id="Слой_1" xmlns="http://www.w3.org/2000/svg" xmlns:xlink="http://www.w3.org/1999/xlink" x="0px" y="0px"
	 viewBox="0 0 60 60" style="enable-background:new 0 0 60 60;" xml:space="preserve">
<style type="text/css">
	.st0{fill:none;}
	.st1{fill:#25AAE1;}
</style>
<rect x="-70" y="0" class="st0" width="60" height="60"/>
<path class="st1" d="M57.8,0H2.2C1,0,0,1,0,2.2v47.3c0,1.2,1,2.2,2.2,2.2h18.9c0.1,0.1,0.1,0.2,0.2,0.2l7.7,7.7
	c0.6,0.6,1.5,0.6,2.1,0l7.7-7.7c0.1-0.1,0.1-0.2,0.2-0.2h18.9c1.2,0,2.2-1,2.2-2.2V2.2C60,1,59,0,57.8,0z M32.7,44.7h-5.4v-5.4h5.4
	V44.7z M41.3,20.5c-0.8,1.4-2.3,3.2-4.7,5.2c-1.6,1.4-2.6,2.4-3,3c-0.5,0.7-0.8,1.4-1.1,2.3c-0.2,0.8-0.4,2.2-0.4,4.1h-4.6
	c0-0.6,0-1.1,0-1.4c0-1.9,0.3-3.5,0.8-4.8c0.4-1,1-2.1,1.9-3.1c0.6-0.8,1.8-1.9,3.4-3.3s2.7-2.6,3.2-3.5c0.5-0.9,0.7-1.8,0.7-2.8
	c0-1.9-0.7-3.5-2.2-4.9c-1.4-1.4-3.2-2.1-5.3-2.1c-2,0-3.7,0.6-5.1,1.9c-1.4,1.3-2.3,3.3-2.7,6l-4.9-0.6c0.4-3.6,1.8-6.4,3.9-8.3
	c2.2-1.9,5.1-2.9,8.6-2.9c3.8,0,6.8,1,9.1,3.1s3.4,4.6,3.4,7.5C42.5,17.6,42.1,19.1,41.3,20.5z"/>
</svg>
