<?xml version="1.0" encoding="utf-8"?>
<!-- Generator: Adobe Illustrator 22.1.0, SVG Export Plug-In . SVG Version: 6.00 Build 0)  -->
<svg version="1.1" id="Слой_1" xmlns="http://www.w3.org/2000/svg" xmlns:xlink="http://www.w3.org/1999/xlink" x="0px" y="0px"
	 viewBox="0 0 60 60" style="enable-background:new 0 0 60 60;" xml:space="preserve">
<style type="text/css">
	.st0{fill:#25AAE1;}
</style>
<g>
	<path class="st0" d="M45.8,38c-3.2,0.6-6.4,1.1-9.7,1.6c-4.8,0.8-5,0.8-9.5,0c0,0-0.1,0-0.1,0c-3.5-0.7-7-1.4-10.6-2.1
		c-0.7-0.1-1.2,0.1-1.4,0.7c-0.2,0.6,0.1,1.1,0.7,1.4c0.8,0.4,1.5,1,2.1,1.6c1.9,2.3,2.1,5.5,0.5,7.9c-1.1,1.6-3.3,1.8-4.7,0.5
		c-1-1-1.4-3.1-0.8-4.3c0-0.1,0.1-0.2,0.2-0.3c0.3-0.4,0.8-0.6,1.3-0.4c0.5,0.2,0.7,0.6,0.7,1.1c0,0.2-0.1,0.5-0.2,0.7
		c-0.1,0.4,0,0.9,0.3,1.2c0.4,0.3,0.9,0.4,1.3,0.1c0.4-0.2,0.6-0.7,0.7-1.1c0.6-1.8-0.2-3.5-1.8-4.2c-1.7-0.7-3.5,0-4.3,1.6
		c-1,2-0.5,5.3,1.1,6.9c1.4,1.4,3.1,1.9,5.1,1.6c4-0.7,8.1-1.3,12.1-2c0.1,0,0.3,0,0.4,0c0,0.1,0,0.1,0,0.2
		c-0.1,0.1-0.1,0.2-0.2,0.3c-1.2,2.3-2.8,4.3-4.6,6.1c-0.1,0.1-0.1,0.3-0.2,0.5c0.2,0,0.4,0.1,0.5,0.1c0.9-0.2,1.8-0.4,2.6-0.5
		c0.2-0.1,0.4,0,0.5,0.2c0.4,0.7,0.8,1.4,1.2,2.1c0.2,0.4,0.5,0.4,0.7,0c1.4-2.8,2.7-5.6,3.4-8.7c0-0.1,0.1-0.2,0.1-0.4
		c0,0.1,0.1,0.2,0.1,0.3c0.4,1.3,0.7,2.6,1.2,3.9c0.6,1.6,1.4,3.2,2.2,4.9c0.1,0.1,0.2,0.3,0.4,0.3c0.1,0,0.3-0.2,0.4-0.3
		c0.4-0.7,0.8-1.3,1.1-2c0.1-0.2,0.2-0.3,0.5-0.2c0.9,0.2,1.8,0.4,2.7,0.6c0.1,0,0.3-0.1,0.5-0.1c0-0.2-0.1-0.3-0.1-0.5
		c-0.9-1.1-1.9-2.1-2.8-3.3c-0.7-0.9-1.2-1.8-1.8-2.7c0,0,0.1-0.1,0.1-0.1c0.2,0,0.4,0.1,0.5,0.1c2.7,0.4,5.5,0.9,8.2,1.4
		c0.8,0.1,1.5-0.1,2.2-0.6c1.1-0.8,1.8-1.9,2.2-3.2c1.1-3.4,0.9-6.6-1.3-9.5C48.4,38.4,47.3,37.7,45.8,38z M31,48
		c0,0.1-0.2,0.2-0.3,0.2c-3.4,0.5-6.7,1-10.1,1.4c-0.1,0-0.3,0-0.5,0.1c1.5-3.3,1.4-6.4-0.6-9.4c0.2,0,0.4,0,0.5,0.1
		c3.1,0.6,6.2,1.2,9.2,1.8c0.5,0.1,0.9,0.2,1.4,0.2c0.2,0,0.3,0.1,0.4,0.3C31.6,44.5,31.6,46.2,31,48z M47.8,49.4
		c-0.1,0.2-0.3,0.4-0.4,0.6c-0.3,0.4-0.7,0.6-1.3,0.5c-3.2-0.6-6.5-1.1-9.7-1.6c-0.3-0.1-0.6-0.1-1-0.2c0.9-2.2,0.9-4.4,0-6.6
		c0.1,0,0.1,0,0.2-0.1c3.3-0.6,6.6-1.1,9.9-1.6c0.3,0,0.6,0,0.9-0.1c0.4-0.1,0.7,0.1,0.9,0.3c0.8,0.8,1.3,1.8,1.5,2.9
		C49.1,45.5,48.9,47.5,47.8,49.4z"/>
</g>
<g>
	<path class="st0" d="M3.2,19.9c-1.7-1.1-1.9-2.5-0.4-3.8C2.9,16,3,15.8,3,15.6c0-1.1,0-2.2,0-3.3c0-0.2-0.2-0.5-0.4-0.6
		c-0.4-0.2-0.9-0.4-1.3-0.6c-1.4-0.8-1.4-2.5,0-3.3c0.2-0.1,0.5-0.3,0.8-0.3C10.7,5,19.5,2.7,28.3,0.3C30-0.1,31.6,0,33.2,0.5
		c8.3,2.7,16.6,5.4,24.9,8.1c0.3,0.1,0.6,0.2,0.9,0.4c1.4,0.7,1.5,2.4,0.3,3.3c-0.7,0.5-1.5,0.8-2.3,1.1c-7.4,2.6-14.9,5.1-22.3,7.7
		c-0.5,0.2-1,0.3-1.5,0.5c-1.4,0.6-2.8,0.5-4.1,0c-7.8-2.9-15.5-5.7-23.3-8.6c-0.3-0.1-0.6-0.2-1-0.3c0,1.1,0,2.2,0,3.2
		c0,0.2,0.1,0.3,0.3,0.4c1.4,1.2,1.3,2.7-0.4,3.7c1.3,1.1,1.6,2.8,1.8,4.3c0.3,2.6,0.5,5.2,0.7,7.8c0.1,0.7,0.1,1.3,0.1,2
		c0,1-0.5,1.6-1.5,1.6c-1.1,0-2.1,0-3.2,0c-0.9,0-1.4-0.5-1.4-1.3c0-3.9,0-7.8,0.8-11.6C2,21.8,2.2,20.7,3.2,19.9z"/>
	<path class="st0" d="M46.6,19.2l2.1-0.7c0,0,0.1,8.8-0.1,11.2c-0.1,1.2,0,1.8-0.6,2.5c-0.7,0.7-1.1,0.9-2.7,1.6
		c-4,1.8-8.2,2.8-12.6,3c-6.1,0.4-12-0.5-17.5-3.1c-1.3-0.6-1.1-0.3-2.3-1.2c-0.4-0.3-0.8-0.8-1.1-1.3c-0.2-0.4-0.3-1-0.2-1.4
		c0-5,0-12.6,0-12.6l2.6,0.8c0,0,3.6,1.3,5.4,1.9c3.3,1.2,6.5,2.4,9.8,3.6c1.3,0.5,2.6,0.5,4,0C37.6,22.2,46.6,19.2,46.6,19.2z"/>
</g>
</svg>
