<?xml version="1.0" encoding="utf-8"?>
<!-- Generator: Adobe Illustrator 24.2.3, SVG Export Plug-In . SVG Version: 6.00 Build 0)  -->
<svg version="1.1" id="Слой_1" xmlns="http://www.w3.org/2000/svg" xmlns:xlink="http://www.w3.org/1999/xlink" x="0px" y="0px"
	 viewBox="0 0 60 60" style="enable-background:new 0 0 60 60;" xml:space="preserve">
<style type="text/css">
	.st0{fill:#25AAE1;}
	.st1{fill:none;stroke:#25AAE1;stroke-width:3;stroke-linecap:round;stroke-miterlimit:10;}
</style>
<g>
	<g>
		<path class="st0" d="M55,44.4c-2.2-1.8-6.1-5.9-7.4-14C45.8,18.8,43.3,7,30,7S14.2,18.8,12.4,30.4c-1.3,8.1-5.1,12.2-7.4,14
			c-1,0.8-1.6,2.1-1.6,3.4v3.1H30h26.6v-3.1C56.6,46.5,56,45.2,55,44.4z"/>
		<path class="st0" d="M30,0.1c-2.7,0-4.9,2.2-4.9,4.9s2.2,5,4.9,5s4.9-2.2,4.9-4.9S32.7,0.1,30,0.1z M31.9,5.1C31.9,6.1,31,7,30,7
			s-1.9-0.9-1.9-1.9S29,3.2,30,3.2S31.9,4,31.9,5.1z"/>
	</g>
	<path class="st0" d="M30,59.9c3.5,0,6.4-2.9,6.4-6.4H23.6C23.6,57,26.5,59.9,30,59.9z"/>
</g>
<g>
	<path class="st1" d="M7.7,24.8c-0.8-2-1.2-4.3-0.9-6.6c0.6-4.7,3.7-8.5,7.7-10.3"/>
	<path class="st1" d="M52.3,24.8c0.8-2,1.2-4.3,0.9-6.6c-0.6-4.7-3.7-8.5-7.7-10.3"/>
</g>
</svg>
