<?xml version="1.0" encoding="utf-8"?>
<!-- Generator: Adobe Illustrator 24.3.0, SVG Export Plug-In . SVG Version: 6.00 Build 0)  -->
<svg version="1.1" id="Layer_1" xmlns="http://www.w3.org/2000/svg" xmlns:xlink="http://www.w3.org/1999/xlink" x="0px" y="0px"
	 viewBox="0 0 421.7 421.7" style="enable-background:new 0 0 421.7 421.7;" xml:space="preserve">
<style type="text/css">
	.st0{fill:#FFFFFF;stroke:#25AAE1;stroke-width:7;stroke-miterlimit:10;}
	.st1{fill:#25AAE1;}
	.st2{fill:#FFFFFF;}
</style>
<path class="st0" d="M415.1,210.8c0,112.8-91.4,204.2-204.2,204.2S6.6,323.6,6.6,210.8C6.6,98.1,98.1,6.6,210.9,6.6
	S415.1,98.1,415.1,210.8"/>
<g>
	<path d="M196.9,277.8c16.9,0,34,0,50.9-0.1c7.3,0,9.6-2.2,9.9-9.3c0.2-5.4,0.3-10.9,0.1-16.4c-0.3-5.9-2.9-8.3-8.7-8.7
		c-2.3-0.2-4.6-0.1-6.9-0.1c-21.6,0-43.1-0.2-64.7,0.1c-16.6,0.3-27.4-12.7-26.8-26.8c0.3-9-0.2-18,0-27c0.1-3.3,0.6-6.8,1.7-9.8
		c4.1-10.9,12.4-16.4,25-16.4c57-0.1,115.2-0.3,178.7,0c-2.8-17.3-14-30.4-30.6-35.7c-8.6-2.8-17.3-2.4-26.1-2.5
		c-10.6-0.1-21.3,0-32.2,0c-0.3-3.3-0.4-6.1-0.7-9.1c-2.6-23.1-18.2-38.8-41.5-40.8c-3.6-0.3-7.3-0.4-11-0.5l0,0c-0.4,0-0.8,0-1.2,0
		s-0.8,0-1.2,0l0,0c-3.6,0.1-7.4,0.2-11,0.5c-23.1,2-38.9,17.5-41.4,40.8c-0.3,3-0.5,5.8-0.7,9.1c-10.9,0-21.6-0.1-32.2,0
		c-8.8,0.1-17.5-0.3-26.2,2.5c-18.6,5.9-30.6,21.5-31.3,42h0.1c-0.5,6.4-0.9,18.3-0.1,37.6c-0.1,23.4-0.1,47-0.1,70.4
		c1.1,0,1.9,0.1,2.7,0.1C113,278,154.9,277.9,196.9,277.8z M197.5,97.8c5-0.5,10-0.7,15.1-0.7s10,0.3,15.1,0.7
		c12.1,1.1,19.1,11.7,18.1,25.6c-11.1,0-22.3,0-33.2,0c-11,0-22.1,0-33.2,0C178.4,109.4,185.3,98.9,197.5,97.8z"/>
	<path class="st1" d="M357,189.2H194.4c-5.8,0.1-8.1,2-8.3,7.2c-0.2,4.8-0.1,9.7,0.3,14.5c0.4,5.4,1.3,6.4,7.1,6.5
		c13.6,0.2,27.2,0.2,40.8,0.2c11.5,0.1,23.1,0.1,34.6,0.3c7.1,0.1,12.7,3.3,17.5,8.6c5.5,6,7.2,13.1,7.2,20.9c0,9.2-0.3,18.4,0,27.6
		c0.5,16.5-12.2,28.8-28.3,28.6l-181,0.3H69c1.7,11.3,7,20.9,16.4,28.6c6.8,5.5,14.4,9.3,23.4,9.5c10.2,0.2,20.5,0.5,30.7,0.5
		c24,0.1,48,0.1,72,0.1c0.4,0,0.8,0,1.2,0s0.8,0,1.2,0c24,0,48,0,72-0.1c10.2,0,20.5-0.4,30.7-0.5c9-0.2,16.6-3.9,23.4-9.5
		c11.3-9.4,16.9-21.5,16.9-36.3c-0.1-29.5-0.1-59-0.2-88.6C356.9,200.5,357,194.3,357,189.2z"/>
	<path class="st2" d="M265.1,303.4c16.1,0.2,28.8-12.1,28.3-28.6c-0.3-9.2,0.1-18.4,0-27.6c0-7.8-1.7-14.9-7.2-20.9
		c-4.8-5.2-10.4-8.5-17.5-8.6c-11.5-0.2-23.1-0.2-34.6-0.3c-13.6-0.1-27.2,0-40.8-0.2c-5.7-0.1-6.6-1.1-7.1-6.5
		c-0.4-4.8-0.5-9.7-0.3-14.5c0.2-5.1,2.5-7.1,8.3-7.2h162.6c0-9-0.3-15.3-0.6-19.3h0.1c-0.1-2.2-0.4-4.2-0.7-6.3
		c-63.5-0.4-121.7-0.1-178.7,0c-12.6,0-20.9,5.4-25,16.4c-1.2,3.1-1.7,6.5-1.7,9.8c-0.2,9,0.3,18,0,27
		c-0.6,14.1,10.2,27.1,26.8,26.8c21.6-0.4,43.1-0.1,64.7-0.1c2.3,0,4.6-0.1,6.9,0.1c5.8,0.4,8.4,2.8,8.7,8.7
		c0.3,5.4,0.2,10.9-0.1,16.4c-0.3,7.1-2.6,9.3-9.9,9.3c-16.9,0.1-33.9,0-50.9,0.1c-41.9,0.1-83.8,0.1-125.7,0.2
		c-0.8,0-1.7,0-2.7-0.1c0,6,0,12,0,18c0,2.7,0.2,5.2,0.6,7.7H84L265.1,303.4z"/>
</g>
</svg>
