<?xml version="1.0" encoding="utf-8"?>
<!-- Generator: Adobe Illustrator 16.0.0, SVG Export Plug-In . SVG Version: 6.00 Build 0)  -->
<!DOCTYPE svg PUBLIC "-//W3C//DTD SVG 1.1//EN" "http://www.w3.org/Graphics/SVG/1.1/DTD/svg11.dtd">
<svg version="1.1" id="Layer_1" xmlns="http://www.w3.org/2000/svg" xmlns:xlink="http://www.w3.org/1999/xlink" x="0px" y="0px"
	 width="293.293px" height="271.162px" viewBox="0 0 293.293 271.162" enable-background="new 0 0 293.293 271.162"
	 xml:space="preserve">
<g>
	<path d="M130.646,205.616c17.242-0.047,34.458,0.04,51.687-0.061c7.371-0.04,9.709-2.217,10.002-9.401
		c0.221-5.509,0.308-11.058,0.055-16.58c-0.268-5.977-2.858-8.414-8.762-8.768c-2.323-0.174-4.674-0.067-7.004-0.067
		c-21.909,0.027-43.831-0.213-65.733,0.147c-16.851,0.3-27.805-12.935-27.247-27.237c0.344-9.148-0.17-18.296,0.02-27.431
		c0.073-3.369,0.567-6.861,1.743-9.946c4.224-11.111,12.634-16.59,25.388-16.617c57.917-0.104,116.932-0.341,181.383,0.027
		c-2.791-17.579-14.242-30.853-31.13-36.192c-8.708-2.768-17.642-2.377-26.55-2.458c-10.83-0.086-21.635,0.014-32.727,0.04
		c-0.254-3.315-0.42-6.243-0.728-9.202c-2.558-23.524-18.497-39.367-42.055-41.353c-3.712-0.314-7.448-0.421-11.188-0.474V0
		c-0.387,0-0.771,0.017-1.151,0.023C146.261,0.017,145.877,0,145.496,0v0.043c-3.739,0.053-7.482,0.16-11.195,0.474
		c-23.548,1.986-39.497,17.829-42.048,41.353c-0.304,2.958-0.474,5.887-0.738,9.202c-11.081-0.026-21.896-0.126-32.713-0.04
		c-8.911,0.081-17.849-0.31-26.55,2.458C13.359,59.462,1.189,75.308,0.425,96.055c0.046,0,0.093,0,0.14,0.007
		c-0.481,6.474-0.918,18.56-0.14,38.208c-0.05,23.836-0.081,47.674-0.13,71.513c1.068,0.033,1.946,0.06,2.721,0.06
		C45.562,205.762,88.1,205.668,130.646,205.616z M131.316,22.87c5.075-0.474,10.203-0.688,15.332-0.731
		c5.128,0.043,10.25,0.257,15.331,0.731c12.301,1.139,19.365,11.876,18.403,26.045c-11.331,0.02-22.556,0.033-33.734,0.047
		c-11.178-0.014-22.403-0.027-33.745-0.047C111.952,34.746,119.013,24.009,131.316,22.87z"/>
	<path fill="#25AAE1" d="M293.292,115.677h-165.11c-5.946,0.093-8.193,2.03-8.404,7.252c-0.193,4.901-0.1,9.799,0.257,14.67
		c0.414,5.535,1.349,6.483,7.162,6.591c13.809,0.24,27.618,0.174,41.413,0.24c11.686,0.087,23.357,0.087,35.051,0.26
		c7.211,0.134,12.914,3.412,17.775,8.701c5.596,6.063,7.285,13.302,7.312,21.154c0.046,9.335-0.288,18.71-0.026,28.039
		c0.474,16.693-12.414,29.227-28.721,29.04l-183.67,0.294H0.859c1.663,11.505,7.135,21.221,16.561,28.986
		c6.861,5.629,14.644,9.436,23.792,9.622c10.4,0.188,20.793,0.501,31.19,0.541c24.373,0.094,48.732,0.067,73.095,0.094
		c0.381,0,0.765,0,1.152,0c0.381,0,0.765,0,1.151,0c24.363-0.026,48.723,0,73.096-0.094c10.396-0.04,20.787-0.354,31.189-0.541
		c9.143-0.187,16.922-3.993,23.785-9.622c11.499-9.469,17.215-21.789,17.162-36.779c-0.094-29.948-0.107-59.91-0.168-89.855
		C293.151,127.085,293.272,120.925,293.292,115.677z"/>
	<path fill="#FFFFFF" d="M200,231.625c16.307,0.187,29.194-12.347,28.721-29.04c-0.262-9.329,0.072-18.704,0.026-28.039
		c-0.026-7.853-1.716-15.091-7.312-21.154c-4.861-5.289-10.564-8.567-17.775-8.701c-11.693-0.173-23.365-0.173-35.051-0.26
		c-13.795-0.066-27.604,0-41.413-0.24c-5.813-0.107-6.748-1.056-7.162-6.591c-0.357-4.872-0.451-9.77-0.257-14.67
		c0.21-5.222,2.458-7.159,8.404-7.252h165.11c0.027-9.122-0.26-15.508-0.567-19.615c0.047-0.007,0.093-0.007,0.14-0.007
		c-0.08-2.193-0.354-4.297-0.688-6.374c-64.451-0.368-123.466-0.13-181.383-0.027c-12.754,0.027-21.164,5.506-25.388,16.617
		c-1.175,3.085-1.669,6.578-1.743,9.946c-0.19,9.135,0.324,18.283-0.02,27.431c-0.558,14.303,10.396,27.537,27.247,27.237
		c21.902-0.36,43.824-0.12,65.733-0.147c2.33,0,4.681-0.106,7.004,0.067c5.903,0.354,8.494,2.791,8.762,8.768
		c0.253,5.522,0.166,11.071-0.055,16.58c-0.293,7.185-2.631,9.361-10.002,9.401c-17.229,0.101-34.445,0.014-51.687,0.061
		c-42.545,0.053-85.084,0.146-127.629,0.227c-0.775,0-1.653-0.026-2.721-0.06c-0.013,6.109-0.013,12.226-0.034,18.343
		c-0.006,2.691,0.237,5.269,0.598,7.793h15.472L200,231.625z"/>
</g>
</svg>
